<?xml version="1.0" standalone="no"?>
<!DOCTYPE svg PUBLIC "-//W3C//DTD SVG 1.1//EN" "http://www.w3.org/Graphics/SVG/1.1/DTD/svg11.dtd" >
<svg xmlns="http://www.w3.org/2000/svg" xmlns:xlink="http://www.w3.org/1999/xlink" version="1.1">
<metadata>
Created by FontForge 20170731 at Fri Jul 20 05:09:36 2012
 By Aleksey,,,
(c) 2004-2012 Typodermic Fonts Inc. See attached license agreement. If agreement is missing visit typodermicfonts.com for more info. This font is part of the Larabie Fonts collection from Typodermic Fonts.
</metadata>
<defs>
<font id="Xirod-Regular" horiz-adv-x="1005" >
  <font-face 
    font-family="Xirod"
    font-weight="400"
    font-stretch="normal"
    units-per-em="1000"
    panose-1="4 1 4 0 0 0 0 0 0 0"
    ascent="722"
    descent="-278"
    cap-height="700"
    bbox="-184 -278 1893 922"
    underline-thickness="20"
    underline-position="-163"
    unicode-range="U+0017-E063"
  />
<missing-glyph horiz-adv-x="923" 
d="M116 -243q-88 0 -88 76v891q0 77 88 77h690q89 0 89 -77v-891q0 -76 -89 -76h-690zM853 498l-458 122q-29 8 -56 12t-53 4q-172 0 -238 -188l146 -39q28 75 94 75q10 0 20 -2t22 -5l331 -88l-28 -104l-307 82l-56 -211l156 -43l23 88l303 -81zM379 -58l30 111l-155 43
l-30 -112z" />
    <glyph glyph-name=".notdef" horiz-adv-x="923" 
d="M116 -243q-88 0 -88 76v891q0 77 88 77h690q89 0 89 -77v-891q0 -76 -89 -76h-690zM853 498l-458 122q-29 8 -56 12t-53 4q-172 0 -238 -188l146 -39q28 75 94 75q10 0 20 -2t22 -5l331 -88l-28 -104l-307 82l-56 -211l156 -43l23 88l303 -81zM379 -58l30 111l-155 43
l-30 -112z" />
    <glyph glyph-name=".null" horiz-adv-x="0" 
 />
    <glyph glyph-name="nonmarkingreturn" horiz-adv-x="411" 
 />
    <glyph glyph-name="uni0017" horiz-adv-x="411" 
 />
    <glyph glyph-name="space" unicode=" " horiz-adv-x="411" 
 />
    <glyph glyph-name="exclam" unicode="!" horiz-adv-x="283" 
d="M65 1v165h170v-165h-170zM235 700v-468h-170v468h170z" />
    <glyph glyph-name="quotedbl" unicode="&#x22;" horiz-adv-x="414" 
d="M358 491h-118v209h118v-209zM178 491h-118v209h118v-209z" />
    <glyph glyph-name="numbersign" unicode="#" horiz-adv-x="562" 
d="M335 296v112h-108v-112h108zM524 185h-74v-75h-115v75h-108v-75h-115v75h-74v111h74v112h-74v111h74v74h115v-74h108v74h115v-74h74v-111h-74v-112h74v-111z" />
    <glyph glyph-name="dollar" unicode="$" horiz-adv-x="989" 
d="M644 271v-105q52 0 81.5 27t37.5 78h-119zM344 428v107q-106 0 -119 -107h119zM443 166h105v105h-105v-105zM443 428h105v107h-105v-107zM443 -65h-99v65h-282v166h282v105h-282v134q0 275 282 293v66h99v-64h105v64h96v-64h280v-165h-280v-107h283v-133
q0 -279 -283 -294v-66h-96v65h-105v-65z" />
    <glyph glyph-name="percent" unicode="%" horiz-adv-x="1210" 
d="M58 0zM357 458h-97v96h97v-96zM451 600h-198q-27 0 -44.5 -4.5t-28.5 -15.5t-15.5 -29.5t-4.5 -45.5v-92h197q26 0 44 4.5t29 15t16 28.5t5 46v93zM553 700v-195q0 -91 -50.5 -141.5t-143.5 -50.5h-301v194q0 89 50.5 141t142.5 52h302zM973 653l-653 -664l-74 75
l654 664zM952 145h-97v96h97v-96zM1046 287h-198q-27 0 -44.5 -4.5t-28.5 -15.5t-15.5 -29.5t-4.5 -45.5v-92h197q26 0 44 4.5t29 15t16 28.5t5 46v93zM1148 387v-195q0 -91 -50.5 -141.5t-143.5 -50.5h-301v194q0 89 50.5 141t142.5 52h302z" />
    <glyph glyph-name="ampersand" unicode="&#x26;" horiz-adv-x="1040" 
d="M816 424h171v-424h-740q-191 0 -191 178q0 79 34.5 123t95.5 56q-130 21 -130 166q0 177 191 177h450v-162h-404q-57 0 -57 -53q0 -61 57 -61h403v-149h-403q-57 0 -57 -59q0 -54 57 -54h523v262z" />
    <glyph glyph-name="quotesingle" unicode="'" horiz-adv-x="252" 
d="M183 491h-118v209h118v-209z" />
    <glyph glyph-name="parenleft" unicode="(" horiz-adv-x="437" 
d="M348 -277q-60 22 -110 56.5t-86 88t-56 128.5t-20 179v297q0 103 20 178.5t56 129t86 87.5t110 55l70 -118q-48 -19 -81.5 -49.5t-55 -70.5t-31 -87.5t-9.5 -101.5v-345q0 -53 9.5 -100.5t31 -87.5t55 -70.5t81.5 -48.5z" />
    <glyph glyph-name="parenright" unicode=")" horiz-adv-x="437" 
d="M18 -157q48 18 82 48.5t55.5 70.5t31 87.5t9.5 100.5v345q0 54 -9.5 101.5t-31 87.5t-55.5 70.5t-82 49.5l71 118q60 -21 110 -55t86 -87.5t55.5 -129t19.5 -178.5v-297q0 -104 -19.5 -179t-55.5 -128.5t-86 -88t-110 -56.5z" />
    <glyph glyph-name="asterisk" unicode="*" horiz-adv-x="598" 
d="M562 261l-58 -97l-147 89v-142h-116v142l-149 -89l-57 97l154 91l-154 93l57 96l149 -88v141h116v-141l147 88l58 -96l-154 -93z" />
    <glyph glyph-name="plus" unicode="+" horiz-adv-x="446" 
d="M429 297h-148v-148h-115v148h-149v111h149v149h115v-149h148v-111z" />
    <glyph glyph-name="comma" unicode="," horiz-adv-x="225" 
d="M130 -94h-83v217h142z" />
    <glyph glyph-name="hyphen" unicode="-" horiz-adv-x="542" 
d="M477 297h-412v111h412v-111z" />
    <glyph glyph-name="period" unicode="." horiz-adv-x="277" 
d="M207 0h-139v166h139v-166z" />
    <glyph glyph-name="slash" unicode="/" horiz-adv-x="736" 
d="M732 653l-654 -664l-73 75l653 664z" />
    <glyph glyph-name="zero" unicode="0" horiz-adv-x="1018" 
d="M597 271h-163v157h163v-157zM789 535h-378q-53 0 -88 -9t-56 -30.5t-30 -57.5t-9 -90v-182h378q52 0 87 8.5t56.5 29.5t30.5 57t9 90v184zM960 700v-352q0 -82 -23.5 -146.5t-68.5 -109.5t-110 -68.5t-148 -23.5h-552v351q0 80 23.5 144.5t68.5 110t110 70t148 24.5h552z
" />
    <glyph glyph-name="one" unicode="1" horiz-adv-x="427" 
d="M202 0v376q0 159 -141 159h-44v165h48q156 0 232 -77.5t76 -243.5v-379h-171z" />
    <glyph glyph-name="two" unicode="2" horiz-adv-x="962" 
d="M911 0h-865v428h705q-16 107 -119 107h-586v165h550q319 0 319 -295v-134h-707v-105h703v-166z" />
    <glyph glyph-name="three" unicode="3" horiz-adv-x="984" 
d="M926 700v-352q0 -82 -23 -146.5t-68 -109.5t-110 -68.5t-149 -23.5h-513v166h510q78 0 118 24.5t56 80.5h-396v157h405v107h-415q-104 0 -119 -107h-163q12 272 319 272h548z" />
    <glyph glyph-name="four" unicode="4" horiz-adv-x="978" 
d="M224 700v-272h527v272h161v-700h-161v271h-698v429h171z" />
    <glyph glyph-name="five" unicode="5" horiz-adv-x="946" 
d="M884 535h-658v-107h662v-133q0 -295 -320 -295h-503v166h539q53 0 82 27t37 78h-658v429h819v-165z" />
    <glyph glyph-name="six" unicode="6" horiz-adv-x="940" 
d="M599 166q51 0 80.5 27t37.5 78h-496v-105h378zM878 535h-536q-107 0 -120 -107h660v-133q0 -295 -320 -295h-502v405q0 295 319 295h499v-165z" />
    <glyph glyph-name="seven" unicode="7" horiz-adv-x="986" 
d="M166 0l421 485q6 7 20 20.5t37 33.5q-25 -2 -48.5 -3t-46.5 -1h-219q-105 0 -120 -107h-164q12 272 320 272h609l-595 -700h-214z" />
    <glyph glyph-name="eight" unicode="8" horiz-adv-x="1022" 
d="M291 536q-57 0 -57 -51q0 -61 57 -61h442q56 0 56 61q0 51 -56 51h-442zM291 275q-57 0 -57 -59q0 -54 57 -54h442q56 0 56 54q0 59 -56 59h-442zM245 0q-192 0 -192 178q0 79 32 123t90 56q-60 11 -91 52t-31 114q0 177 192 177h533q191 0 191 -177q0 -73 -31 -114
t-89 -52q57 -12 88.5 -56t31.5 -123q0 -178 -191 -178h-533z" />
    <glyph glyph-name="nine" unicode="9" horiz-adv-x="970" 
d="M748 428v107h-407q-103 0 -119 -107h526zM62 166h565q54 0 82.5 27t36.5 78h-687v134q0 295 319 295h531v-405q0 -295 -319 -295h-528v166z" />
    <glyph glyph-name="colon" unicode=":" horiz-adv-x="282" 
d="M207 73h-139v166h139v-166zM209 404h-139v167h139v-167z" />
    <glyph glyph-name="semicolon" unicode=";" horiz-adv-x="261" 
d="M204 361h-139v167h139v-167zM148 -94h-84v260h142z" />
    <glyph glyph-name="less" unicode="&#x3c;" horiz-adv-x="446" 
d="M429 89l-412 199v139l412 190v-125l-309 -140l309 -138v-125z" />
    <glyph glyph-name="equal" unicode="=" horiz-adv-x="446" 
d="M429 415h-412v111h412v-111zM429 179h-412v112h412v-112z" />
    <glyph glyph-name="greater" unicode="&#x3e;" horiz-adv-x="446" 
d="M17 214l310 138l-310 140v125l412 -190v-139l-412 -199v125z" />
    <glyph glyph-name="question" unicode="?" horiz-adv-x="878" 
d="M841 294h-332v-62h-171v190h337v113h-364q-111 0 -121 -107h-160q21 272 308 272h503v-406zM338 1v165h171v-165h-171z" />
    <glyph glyph-name="at" unicode="@" horiz-adv-x="875" 
d="M477 340h-71v-71h71v71zM814 700v-651h-335v117h-184v151q0 138 140 138h158v-289h83v384h-339q-132 0 -132 -135v-415h-144v402q0 298 271 298h482z" />
    <glyph glyph-name="A" unicode="A" horiz-adv-x="1036" 
d="M799 535h-308q-77 0 -123.5 -8t-73 -22.5t-38 -35t-16.5 -44.5h559v110zM970 0h-171v271h-570v-271h-170v351q0 82 23.5 147t68 110t109.5 68.5t148 23.5h562v-700z" />
    <glyph glyph-name="B" unicode="B" horiz-adv-x="1056" 
d="M235 162h524q57 0 57 54q0 59 -57 59h-404v149h404q57 0 57 61q0 51 -57 51h-524v-374zM65 700h739q192 0 192 -177q0 -145 -121 -166q58 -12 89.5 -56t31.5 -123q0 -178 -192 -178h-739v700z" />
    <glyph glyph-name="C" unicode="C" horiz-adv-x="976" 
d="M932 0h-874v351q0 82 23.5 147t68 110t109.5 68.5t149 23.5h524v-165h-521q-183 0 -183 -187v-182h704v-166z" />
    <glyph glyph-name="D" unicode="D" horiz-adv-x="1007" 
d="M778 535h-713v165h883v-352q0 -82 -23.5 -146.5t-68 -109.5t-109.5 -68.5t-148 -23.5h-534v428h170v-262h360q183 0 183 185v184z" />
    <glyph glyph-name="E" unicode="E" horiz-adv-x="983" 
d="M946 535h-718v-107h700v-157h-691q16 -51 56 -78t118 -27h535v-166h-538q-81 0 -146 24.5t-110.5 69.5t-69.5 109.5t-24 144.5v352h888v-165z" />
    <glyph glyph-name="F" unicode="F" horiz-adv-x="925" 
d="M857 271h-629v-271h-170v351q0 80 23.5 144.5t68.5 110t110 70t148 24.5h505v-165h-502q-78 0 -118 -27.5t-56 -79.5h620v-157z" />
    <glyph glyph-name="G" unicode="G" horiz-adv-x="1034" 
d="M974 700v-165h-563q-53 0 -88.5 -9t-56.5 -30.5t-29.5 -58.5t-8.5 -92v-179h580v105h-127v157h297v-428h-919v351q0 82 23 147t67.5 110t109.5 68.5t149 23.5h566z" />
    <glyph glyph-name="H" unicode="H" horiz-adv-x="1014" 
d="M948 0h-170v270h-543v-270h-170v700h170v-272h543v272h170v-700z" />
    <glyph glyph-name="I" unicode="I" horiz-adv-x="303" 
d="M235 0h-170v700h170v-700z" />
    <glyph glyph-name="J" unicode="J" horiz-adv-x="973" 
d="M610 700h297v-700h-538q-72 0 -131.5 20.5t-104 56.5t-72.5 85.5t-37 108.5h176q36 -105 172 -105h364v369h-126v165z" />
    <glyph glyph-name="K" unicode="K" horiz-adv-x="1021" 
d="M235 0h-170v700h170v-272h266l238 272h213l-250 -279q124 -24 192.5 -110t68.5 -230v-81h-171v85q0 186 -183 186h-374v-271z" />
    <glyph glyph-name="L" unicode="L" horiz-adv-x="966" 
d="M235 700v-534h365q135 0 171 105h176q-23 -135 -112 -203t-232 -68h-538v700h170z" />
    <glyph glyph-name="M" unicode="M" horiz-adv-x="1178" 
d="M489 449h171v-449h-171v449zM60 700h702q78 0 142.5 -23.5t110.5 -66t71.5 -101.5t25.5 -130v-379h-170v350q0 185 -180 185h-533v-535h-169v700z" />
    <glyph glyph-name="N" unicode="N" horiz-adv-x="1080" 
d="M1013 0h-180q-145 198 -283.5 324t-275.5 178q-10 3 -21.5 7.5t-24.5 9.5q3 -38 3 -49v-470h-166v700h147q84 -27 164.5 -70t157 -98t148 -120t137.5 -136l31 -33q-3 31 -3 46v411h166v-700z" />
    <glyph glyph-name="O" unicode="O" horiz-adv-x="1050" 
d="M817 535h-406q-53 0 -88 -9t-56 -30.5t-30 -57.5t-9 -90v-182h406q51 0 86 8.5t56.5 29.5t31 57t9.5 90v184zM987 700v-352q0 -82 -23.5 -146.5t-68 -109.5t-109.5 -68.5t-148 -23.5h-580v351q0 80 23.5 144.5t68.5 110t110 70t148 24.5h579z" />
    <glyph glyph-name="P" unicode="P" horiz-adv-x="1036" 
d="M65 0v700h930v-134q0 -295 -319 -295h-362v157h398q52 0 81 27.5t37 79.5h-595v-535h-170z" />
    <glyph glyph-name="Q" unicode="Q" horiz-adv-x="1003" 
d="M781 535h-378q-53 0 -88.5 -9t-56.5 -30.5t-29.5 -57.5t-8.5 -90v-182h270v85h171v-85q32 5 54.5 17.5t37 34.5t21.5 54.5t7 78.5v184zM661 -95h-171v95h-441v351q0 80 24 144.5t69 110t110 70t147 24.5h552v-352q0 -72 -21 -133t-59.5 -106t-92 -72.5t-117.5 -33.5v-98z
" />
    <glyph glyph-name="R" unicode="R" horiz-adv-x="1053" 
d="M314 428h398q52 0 81 27.5t37 79.5h-595v-535h-170v700h930v-134q0 -265 -258 -292l266 -274h-206l-270 271h-213v157z" />
    <glyph glyph-name="S" unicode="S" horiz-adv-x="976" 
d="M914 535h-573q-107 0 -120 -107h696v-133q0 -295 -318 -295h-540v166h576q52 0 81.5 27t37.5 78h-695v134q0 295 319 295h536v-165z" />
    <glyph glyph-name="T" unicode="T" horiz-adv-x="946" 
d="M917 535h-322v-535h-170v535h-118q-111 0 -120 -107h-161q22 272 308 272h583v-165z" />
    <glyph glyph-name="U" unicode="U" 
d="M235 700v-341q0 -193 262 -193h281v534h170v-700h-495q-89 0 -160.5 24t-122 71t-78 116t-27.5 159v330h170z" />
    <glyph glyph-name="V" unicode="V" horiz-adv-x="1012" 
d="M992 700l-487 -761l-485 761h201l245 -411q22 -37 38 -78q8 20 19 39l22 38l246 412h201z" />
    <glyph glyph-name="W" unicode="W" horiz-adv-x="1231" 
d="M715 251h-171v449h171v-449zM1171 0h-756q-78 0 -142.5 23.5t-110.5 66t-71.5 101.5t-25.5 130v379h170v-351q0 -183 180 -183h587v534h169v-700z" />
    <glyph glyph-name="X" unicode="X" horiz-adv-x="1072" 
d="M1054 0h-239l-276 256l-289 -256h-236l404 347l-406 353h242l277 -254l283 254h240l-406 -346z" />
    <glyph glyph-name="Y" unicode="Y" horiz-adv-x="1044" 
d="M985 700v-352q0 -82 -23 -146.5t-67.5 -109.5t-109.5 -68.5t-149 -23.5h-571v166h567q78 0 118.5 26.5t54.5 77.5h-740v430h170v-277h580v277h170z" />
    <glyph glyph-name="Z" unicode="Z" horiz-adv-x="986" 
d="M934 700l-530 -549h269q53 0 82 32t37 88h163q-14 -271 -318 -271h-610l544 550h-464v150h827z" />
    <glyph glyph-name="bracketleft" unicode="[" horiz-adv-x="360" 
d="M85 -277v1198h258v-128h-108v-938h108v-132h-258z" />
    <glyph glyph-name="backslash" unicode="\" horiz-adv-x="736" 
d="M77 728l653 -664l-72 -75l-654 664z" />
    <glyph glyph-name="bracketright" unicode="]" horiz-adv-x="360" 
d="M16 -277v132h108v938h-108v128h258v-1198h-258z" />
    <glyph glyph-name="asciicircum" unicode="^" horiz-adv-x="606" 
d="M39 288l199 412h139l190 -412h-125l-140 310l-138 -310h-125z" />
    <glyph glyph-name="underscore" unicode="_" horiz-adv-x="715" 
d="M720 -166h-720v107h720v-107z" />
    <glyph glyph-name="grave" unicode="`" horiz-adv-x="448" 
d="M58 921l328 -120v-42h-328v162z" />
    <glyph glyph-name="a" unicode="a" horiz-adv-x="1036" 
d="M59 0zM799 535h-308q-77 0 -123.5 -8t-73 -22.5t-38 -35t-16.5 -44.5h559v110zM970 0h-171v271h-570v-271h-170v351q0 82 23.5 147t68 110t109.5 68.5t148 23.5h562v-700z" />
    <glyph glyph-name="b" unicode="b" horiz-adv-x="1056" 
d="M65 0zM235 162h524q57 0 57 54q0 59 -57 59h-404v149h404q57 0 57 61q0 51 -57 51h-524v-374zM65 700h739q192 0 192 -177q0 -145 -121 -166q58 -12 89.5 -56t31.5 -123q0 -178 -192 -178h-739v700z" />
    <glyph glyph-name="c" unicode="c" horiz-adv-x="976" 
d="M58 0zM932 0h-874v351q0 82 23.5 147t68 110t109.5 68.5t149 23.5h524v-165h-521q-183 0 -183 -187v-182h704v-166z" />
    <glyph glyph-name="d" unicode="d" horiz-adv-x="1007" 
d="M65 0zM778 535h-713v165h883v-352q0 -82 -23.5 -146.5t-68 -109.5t-109.5 -68.5t-148 -23.5h-534v428h170v-262h360q183 0 183 185v184z" />
    <glyph glyph-name="e" unicode="e" horiz-adv-x="983" 
d="M58 0zM946 535h-718v-107h700v-157h-691q16 -51 56 -78t118 -27h535v-166h-538q-81 0 -146 24.5t-110.5 69.5t-69.5 109.5t-24 144.5v352h888v-165z" />
    <glyph glyph-name="f" unicode="f" horiz-adv-x="925" 
d="M58 0zM857 271h-629v-271h-170v351q0 80 23.5 144.5t68.5 110t110 70t148 24.5h505v-165h-502q-78 0 -118 -27.5t-56 -79.5h620v-157z" />
    <glyph glyph-name="g" unicode="g" horiz-adv-x="1034" 
d="M59 0zM974 700v-165h-563q-53 0 -88.5 -9t-56.5 -30.5t-29.5 -58.5t-8.5 -92v-179h580v105h-127v157h297v-428h-919v351q0 82 23 147t67.5 110t109.5 68.5t149 23.5h566z" />
    <glyph glyph-name="h" unicode="h" horiz-adv-x="1014" 
d="M65 0zM948 0h-170v270h-543v-270h-170v700h170v-272h543v272h170v-700z" />
    <glyph glyph-name="i" unicode="i" horiz-adv-x="303" 
d="M65 0zM235 0h-170v700h170v-700z" />
    <glyph glyph-name="j" unicode="j" horiz-adv-x="973" 
d="M24 0zM610 700h297v-700h-538q-72 0 -131.5 20.5t-104 56.5t-72.5 85.5t-37 108.5h176q36 -105 172 -105h364v369h-126v165z" />
    <glyph glyph-name="k" unicode="k" horiz-adv-x="1021" 
d="M65 0zM235 0h-170v700h170v-272h266l238 272h213l-250 -279q124 -24 192.5 -110t68.5 -230v-81h-171v85q0 186 -183 186h-374v-271z" />
    <glyph glyph-name="l" unicode="l" horiz-adv-x="966" 
d="M65 0zM235 700v-534h365q135 0 171 105h176q-23 -135 -112 -203t-232 -68h-538v700h170z" />
    <glyph glyph-name="m" unicode="m" horiz-adv-x="1178" 
d="M60 0zM489 449h171v-449h-171v449zM60 700h702q78 0 142.5 -23.5t110.5 -66t71.5 -101.5t25.5 -130v-379h-170v350q0 185 -180 185h-533v-535h-169v700z" />
    <glyph glyph-name="n" unicode="n" horiz-adv-x="1080" 
d="M65 0zM1013 0h-180q-145 198 -283.5 324t-275.5 178q-10 3 -21.5 7.5t-24.5 9.5q3 -38 3 -49v-470h-166v700h147q84 -27 164.5 -70t157 -98t148 -120t137.5 -136l31 -33q-3 31 -3 46v411h166v-700z" />
    <glyph glyph-name="o" unicode="o" horiz-adv-x="1050" 
d="M58 0zM817 535h-406q-53 0 -88 -9t-56 -30.5t-30 -57.5t-9 -90v-182h406q51 0 86 8.5t56.5 29.5t31 57t9.5 90v184zM987 700v-352q0 -82 -23.5 -146.5t-68 -109.5t-109.5 -68.5t-148 -23.5h-580v351q0 80 23.5 144.5t68.5 110t110 70t148 24.5h579z" />
    <glyph glyph-name="p" unicode="p" horiz-adv-x="1036" 
d="M65 0zM65 0v700h930v-134q0 -295 -319 -295h-362v157h398q52 0 81 27.5t37 79.5h-595v-535h-170z" />
    <glyph glyph-name="q" unicode="q" horiz-adv-x="1003" 
d="M49 0zM781 535h-378q-53 0 -88.5 -9t-56.5 -30.5t-29.5 -57.5t-8.5 -90v-182h270v85h171v-85q32 5 54.5 17.5t37 34.5t21.5 54.5t7 78.5v184zM661 -95h-171v95h-441v351q0 80 24 144.5t69 110t110 70t147 24.5h552v-352q0 -72 -21 -133t-59.5 -106t-92 -72.5
t-117.5 -33.5v-98z" />
    <glyph glyph-name="r" unicode="r" horiz-adv-x="1053" 
d="M65 0zM314 428h398q52 0 81 27.5t37 79.5h-595v-535h-170v700h930v-134q0 -265 -258 -292l266 -274h-206l-270 271h-213v157z" />
    <glyph glyph-name="s" unicode="s" horiz-adv-x="976" 
d="M59 0zM914 535h-573q-107 0 -120 -107h696v-133q0 -295 -318 -295h-540v166h576q52 0 81.5 27t37.5 78h-695v134q0 295 319 295h536v-165z" />
    <glyph glyph-name="t" unicode="t" horiz-adv-x="946" 
d="M26 0zM917 535h-322v-535h-170v535h-118q-111 0 -120 -107h-161q22 272 308 272h583v-165z" />
    <glyph glyph-name="u" unicode="u" 
d="M65 0zM235 700v-341q0 -193 262 -193h281v534h170v-700h-495q-89 0 -160.5 24t-122 71t-78 116t-27.5 159v330h170z" />
    <glyph glyph-name="v" unicode="v" horiz-adv-x="1012" 
d="M20 0zM992 700l-487 -761l-485 761h201l245 -411q22 -37 38 -78q8 20 19 39l22 38l246 412h201z" />
    <glyph glyph-name="w" unicode="w" horiz-adv-x="1231" 
d="M65 0zM715 251h-171v449h171v-449zM1171 0h-756q-78 0 -142.5 23.5t-110.5 66t-71.5 101.5t-25.5 130v379h170v-351q0 -183 180 -183h587v534h169v-700z" />
    <glyph glyph-name="x" unicode="x" horiz-adv-x="1072" 
d="M12 0zM1054 0h-239l-276 256l-289 -256h-236l404 347l-406 353h242l277 -254l283 254h240l-406 -346z" />
    <glyph glyph-name="y" unicode="y" horiz-adv-x="1044" 
d="M65 0zM985 700v-352q0 -82 -23 -146.5t-67.5 -109.5t-109.5 -68.5t-149 -23.5h-571v166h567q78 0 118.5 26.5t54.5 77.5h-740v430h170v-277h580v277h170z" />
    <glyph glyph-name="z" unicode="z" horiz-adv-x="986" 
d="M27 0zM934 700l-530 -549h269q53 0 82 32t37 88h163q-14 -271 -318 -271h-610l544 550h-464v150h827z" />
    <glyph glyph-name="braceleft" unicode="{" horiz-adv-x="428" 
d="M302 -277q-33 0 -66 8.5t-59.5 30.5t-43.5 58.5t-17 92.5v250q0 54 -10.5 76.5t-29.5 22.5h-55v150h55q23 0 31.5 23t8.5 69v245q0 49 16 82t42.5 53t59 28.5t65.5 8.5h110v-139h-72q-57 0 -57 -151v-169q0 -43 -17.5 -75.5t-49.5 -54.5q38 -24 52.5 -51.5t14.5 -69.5
v-237q0 -110 51 -110h78v-141h-107z" />
    <glyph glyph-name="bar" unicode="|" horiz-adv-x="319" 
d="M226 -187h-134v1017h134v-1017z" />
    <glyph glyph-name="braceright" unicode="}" horiz-adv-x="428" 
d="M19 -277v141h79q51 0 51 110v237q0 42 14.5 69.5t52.5 51.5q-67 44 -67 130v169q0 151 -58 151h-72v139h111q33 0 65.5 -8.5t58.5 -28.5t42 -53t16 -82v-245q0 -46 8.5 -69t31.5 -23h56v-150h-56q-19 0 -29.5 -22.5t-10.5 -76.5v-250q0 -56 -16.5 -92.5t-43 -58.5
t-59.5 -30.5t-66 -8.5h-108z" />
    <glyph glyph-name="asciitilde" unicode="~" horiz-adv-x="446" 
d="M338 281q-13 -5 -21 -5q-4 0 -7.5 0.5t-8.5 1.5l-152 41q-2 1 -9 1q-5 0 -10 -2l-113 -34v114l92 27q7 2 12 3t9 1t7.5 -1t9.5 -2l151 -39q3 -1 10 -1q4 0 9 2l112 31v-112z" />
    <glyph glyph-name="nonbreakingspace" unicode="&#xa0;" horiz-adv-x="565" 
 />
    <glyph glyph-name="exclamdown" unicode="&#xa1;" horiz-adv-x="297" 
d="M233 700v-165h-170v165h170zM63 1v468h170v-468h-170z" />
    <glyph glyph-name="cent" unicode="&#xa2;" horiz-adv-x="982" 
d="M503 0h-95q-84 0 -149 23.5t-109.5 68.5t-68 109.5t-23.5 146.5v352h445v64h96v-64h333v-165h-333v-369h333v-166h-333v-65h-96v65zM228 350q0 -184 183 -184h92v369h-275v-185z" />
    <glyph glyph-name="sterling" unicode="&#xa3;" horiz-adv-x="920" 
d="M46 428h66q20 130 109.5 201t234.5 71h407v-165h-403q-137 0 -171 -107h391v-94h-403v-168h586v-166h-813v166h57v168h-61v94z" />
    <glyph glyph-name="currency" unicode="&#xa4;" horiz-adv-x="678" 
d="M582 0l-130 136h-228l-132 -136l-67 70l133 131v230l-133 131l67 68l132 -132h228l130 132l70 -68l-135 -131v-230l135 -131zM418 397h-160v-162h160v162z" />
    <glyph glyph-name="yen" unicode="&#xa5;" horiz-adv-x="946" 
d="M792 271h-232v-115h232v-77h-232v-79h-171v79h-238v77h238v115h-238v78h172l-297 351h213l236 -301l234 301h214l-298 -351h167v-78z" />
    <glyph glyph-name="brokenbar" unicode="&#xa6;" horiz-adv-x="319" 
d="M226 447h-134v383h134v-383zM226 -187h-134v384h134v-384z" />
    <glyph glyph-name="section" unicode="&#xa7;" horiz-adv-x="976" 
d="M914 535h-573q-107 0 -120 -107h696v-133q0 -38 -9 -70t-26 -59h35v-133q0 -296 -318 -296h-540v166h576q52 0 81.5 27t37.5 78h-695v158q0 30 9 57t23 50h-32v132q0 295 319 295h536v-165zM635 166q52 0 81.5 28t37.5 79h-413q-106 0 -120 -107h414z" />
    <glyph glyph-name="dieresis" unicode="&#xa8;" horiz-adv-x="514" 
d="M451 752h-139v123h139v-123zM197 752h-139v123h139v-123z" />
    <glyph glyph-name="copyright" unicode="&#xa9;" horiz-adv-x="871" 
d="M810 700v-352q0 -82 -23.5 -146.5t-68 -109.5t-109.5 -68.5t-149 -23.5h-398v351q0 80 23.5 144.5t68.5 110t109.5 70t147.5 24.5h399zM411 610q-61 0 -109 -18t-81.5 -52t-51 -81.5t-17.5 -107.5v-260h308q125 0 192 68t67 189v262h-308zM628 199h-404v162
q0 76 41.5 119t119.5 43h243v-77h-241q-85 0 -85 -86v-84h326v-77z" />
    <glyph glyph-name="ordfeminine" unicode="&#xaa;" horiz-adv-x="597" 
d="M440 600h-159q-38 0 -61.5 -3.5t-37 -9.5t-20 -15t-9.5 -20h287v48zM543 313h-103v145h-295v-145h-102v194q0 92 50 142.5t143 50.5h307v-387z" />
    <glyph glyph-name="guillemotleft" unicode="&#xab;" horiz-adv-x="763" 
d="M677 118h-126l-207 229l207 233h126l-216 -230zM389 118h-126l-206 229l206 233h126l-215 -230z" />
    <glyph glyph-name="logicalnot" unicode="&#xac;" horiz-adv-x="446" 
d="M429 0h-115v297h-297v111h412v-408z" />
    <glyph glyph-name="registered" unicode="&#xae;" horiz-adv-x="871" 
d="M810 700v-352q0 -82 -23.5 -146.5t-68 -109.5t-109.5 -68.5t-149 -23.5h-398v351q0 80 23.5 144.5t68.5 110t109.5 70t147.5 24.5h399zM411 610q-61 0 -109 -18t-81.5 -52t-51 -81.5t-17.5 -107.5v-260h308q125 0 192 68t67 189v262h-308zM344 398h184q47 0 55 48h-275
v-247h-79v324h430v-62q0 -123 -119 -135l123 -127h-95l-125 125h-99v74z" />
    <glyph glyph-name="macron" unicode="&#xaf;" horiz-adv-x="622" 
d="M58 859h502v-100h-502v100z" />
    <glyph glyph-name="degree" unicode="&#xb0;" horiz-adv-x="395" 
d="M273 550q0 30 -17.5 49.5t-59.5 19.5t-59 -19.5t-17 -49.5t17 -52t59 -22q41 0 59 22t18 52zM366 548q0 -32 -9.5 -60t-30 -49t-52.5 -33t-78 -12q-45 0 -77 12t-52.5 33t-29.5 49t-9 60q0 31 9 59t29.5 48.5t52.5 32.5t77 12q46 0 78 -12t52.5 -32.5t30 -48.5t9.5 -59z
" />
    <glyph glyph-name="plusminus" unicode="&#xb1;" horiz-adv-x="446" 
d="M17 0zM429 297h-148v-148h-115v148h-149v111h149v149h115v-149h148v-111zM429 -36h-412v111h412v-111z" />
    <glyph glyph-name="twosuperior" unicode="&#xb2;" horiz-adv-x="556" 
d="M36 313zM511 313h-475v241h378q-12 46 -58 46h-320v100h301q176 0 176 -164v-78h-379v-45h377v-100z" />
    <glyph glyph-name="threesuperior" unicode="&#xb3;" horiz-adv-x="569" 
d="M43 313zM520 700v-195q0 -91 -50 -141.5t-144 -50.5h-281v100h279q38 0 57.5 10.5t28.5 34.5h-210v96h218v46h-218q-51 0 -60 -57h-97q8 157 176 157h301z" />
    <glyph glyph-name="acute" unicode="&#xb4;" horiz-adv-x="448" 
d="M386 759h-328v42l328 120v-162z" />
    <glyph glyph-name="paragraph" unicode="&#xb6;" horiz-adv-x="623" 
d="M444 -129v716h-190v-716h-122v610q-56 12 -81 39t-25 73t31.5 76.5t108.5 30.5h398v-829h-120z" />
    <glyph glyph-name="periodcentered" unicode="&#xb7;" horiz-adv-x="250" 
d="M58 291zM197 291h-139v166h139v-166z" />
    <glyph glyph-name="cedilla" unicode="&#xb8;" horiz-adv-x="501" 
d="M58 -63h380v-42l-190 -121l-190 121v42z" />
    <glyph glyph-name="onesuperior" unicode="&#xb9;" horiz-adv-x="262" 
d="M18 313zM119 313v207q0 80 -71 80h-30v100h32q87 0 129 -43t42 -136v-208h-102z" />
    <glyph glyph-name="ordmasculine" unicode="&#xba;" horiz-adv-x="604" 
d="M450 600h-212q-53 0 -73 -20t-20 -75v-92h213q52 0 72 19.5t20 74.5v93zM552 700v-195q0 -91 -50 -141.5t-142 -50.5h-317v194q0 90 50.5 141.5t142.5 51.5h316z" />
    <glyph glyph-name="guillemotright" unicode="&#xbb;" horiz-adv-x="763" 
d="M560 350l-217 230h128l206 -233l-206 -229h-128zM272 350l-217 230h128l206 -233l-206 -229h-128z" />
    <glyph glyph-name="onequarter" unicode="&#xbc;" horiz-adv-x="1094" 
d="M58 0zM172 313v207q0 80 -71 80h-30v100h32q87 0 129 -43t42 -136v-208h-102zM785 653l-653 -664l-74 75l654 664zM662 387v-146h273v146h97v-387h-97v145h-375v242h102z" />
    <glyph glyph-name="onehalf" unicode="&#xbd;" horiz-adv-x="1111" 
d="M58 0zM159 313v207q0 80 -71 80h-30v100h32q87 0 129 -43t42 -136v-208h-102zM787 653l-653 -664l-74 75l654 664zM1047 0h-475v241h378q-12 46 -58 46h-320v100h301q176 0 176 -164v-78h-379v-45h377v-100z" />
    <glyph glyph-name="threequarters" unicode="&#xbe;" horiz-adv-x="1275" 
d="M57 0zM534 700v-195q0 -91 -50 -141.5t-144 -50.5h-281v100h279q38 0 57.5 10.5t28.5 34.5h-210v96h218v46h-218q-51 0 -60 -57h-97q8 157 176 157h301zM963 653l-653 -664l-74 75l654 664zM843 387v-146h273v146h97v-387h-97v145h-375v242h102z" />
    <glyph glyph-name="questiondown" unicode="&#xbf;" horiz-adv-x="878" 
d="M31 407h332v62h171v-190h-337v-113h364q111 0 121 107h160q-21 -272 -308 -272h-503v406zM534 700v-165h-171v165h171z" />
    <glyph glyph-name="Agrave" unicode="&#xc0;" horiz-adv-x="1036" 
d="M59 0zM799 535h-308q-77 0 -123.5 -8t-73 -22.5t-38 -35t-16.5 -44.5h559v110zM970 0h-171v271h-570v-271h-170v351q0 82 23.5 147t68 110t109.5 68.5t148 23.5h562v-700zM345 921l328 -120v-42h-328v162z" />
    <glyph glyph-name="Aacute" unicode="&#xc1;" horiz-adv-x="1036" 
d="M59 0zM799 535h-308q-77 0 -123.5 -8t-73 -22.5t-38 -35t-16.5 -44.5h559v110zM970 0h-171v271h-570v-271h-170v351q0 82 23.5 147t68 110t109.5 68.5t148 23.5h562v-700zM764 759h-328v42l328 120v-162z" />
    <glyph glyph-name="Acircumflex" unicode="&#xc2;" horiz-adv-x="1036" 
d="M59 0zM799 535h-308q-77 0 -123.5 -8t-73 -22.5t-38 -35t-16.5 -44.5h559v110zM970 0h-171v271h-570v-271h-170v351q0 82 23.5 147t68 110t109.5 68.5t148 23.5h562v-700zM364 801l190 120l190 -120v-42h-380v42z" />
    <glyph glyph-name="Atilde" unicode="&#xc3;" horiz-adv-x="1036" 
d="M59 0zM799 535h-308q-77 0 -123.5 -8t-73 -22.5t-38 -35t-16.5 -44.5h559v110zM970 0h-171v271h-570v-271h-170v351q0 82 23.5 147t68 110t109.5 68.5t148 23.5h562v-700zM303 859h502v-100h-502v100z" />
    <glyph glyph-name="Adieresis" unicode="&#xc4;" horiz-adv-x="1036" 
d="M59 0zM799 535h-308q-77 0 -123.5 -8t-73 -22.5t-38 -35t-16.5 -44.5h559v110zM970 0h-171v271h-570v-271h-170v351q0 82 23.5 147t68 110t109.5 68.5t148 23.5h562v-700zM751 752h-139v123h139v-123zM497 752h-139v123h139v-123z" />
    <glyph glyph-name="Aring" unicode="&#xc5;" horiz-adv-x="1036" 
d="M59 0zM799 535h-308q-77 0 -123.5 -8t-73 -22.5t-38 -35t-16.5 -44.5h559v110zM970 0h-171v271h-570v-271h-170v351q0 82 23.5 147t68 110t109.5 68.5t148 23.5h562v-700zM611 869h-79q-21 0 -28 -7.5t-7 -29.5v-35h79q21 0 28 7.5t7 28.5v36zM671 921v-90
q0 -42 -23 -64.5t-66 -22.5h-145v89q0 41 22.5 64.5t64.5 23.5h147z" />
    <glyph glyph-name="AE" unicode="&#xc6;" horiz-adv-x="1752" 
d="M799 271h-570v-271h-170v351q0 82 23.5 147t68 110t109.5 68.5t148 23.5h1283v-165h-721v-107h699v-157h-699v-105h721v-166h-892v271zM799 535h-308q-76 0 -123 -8t-73.5 -22.5t-38 -34t-16.5 -42.5h559v107z" />
    <glyph glyph-name="Ccedilla" unicode="&#xc7;" horiz-adv-x="976" 
d="M58 0zM932 0h-874v351q0 82 23.5 147t68 110t109.5 68.5t149 23.5h524v-165h-521q-183 0 -183 -187v-182h704v-166zM334 -63h380v-42l-190 -121l-190 121v42z" />
    <glyph glyph-name="Egrave" unicode="&#xc8;" horiz-adv-x="983" 
d="M58 0zM946 535h-718v-107h700v-157h-691q16 -51 56 -78t118 -27h535v-166h-538q-81 0 -146 24.5t-110.5 69.5t-69.5 109.5t-24 144.5v352h888v-165zM282 921l328 -120v-42h-328v162z" />
    <glyph glyph-name="Eacute" unicode="&#xc9;" horiz-adv-x="983" 
d="M58 0zM946 535h-718v-107h700v-157h-691q16 -51 56 -78t118 -27h535v-166h-538q-81 0 -146 24.5t-110.5 69.5t-69.5 109.5t-24 144.5v352h888v-165zM700 759h-328v42l328 120v-162z" />
    <glyph glyph-name="Ecircumflex" unicode="&#xca;" horiz-adv-x="983" 
d="M58 0zM946 535h-718v-107h700v-157h-691q16 -51 56 -78t118 -27h535v-166h-538q-81 0 -146 24.5t-110.5 69.5t-69.5 109.5t-24 144.5v352h888v-165zM301 801l190 120l190 -120v-42h-380v42z" />
    <glyph glyph-name="Edieresis" unicode="&#xcb;" horiz-adv-x="983" 
d="M58 0zM946 535h-718v-107h700v-157h-691q16 -51 56 -78t118 -27h535v-166h-538q-81 0 -146 24.5t-110.5 69.5t-69.5 109.5t-24 144.5v352h888v-165zM687 752h-139v123h139v-123zM433 752h-139v123h139v-123z" />
    <glyph glyph-name="Igrave" unicode="&#xcc;" horiz-adv-x="327" 
d="M0 0zM259 0h-170v700h170v-700zM-32 921l328 -120v-42h-328v162z" />
    <glyph glyph-name="Iacute" unicode="&#xcd;" horiz-adv-x="322" 
d="M35 0zM235 0h-170v700h170v-700zM363 759h-328v42l328 120v-162z" />
    <glyph glyph-name="Icircumflex" unicode="&#xce;" horiz-adv-x="336" 
d="M0 0zM251 0h-170v700h170v-700zM-21 801l190 120l190 -120v-42h-380v42z" />
    <glyph glyph-name="Idieresis" unicode="&#xcf;" horiz-adv-x="341" 
d="M0 0zM253 0h-170v700h170v-700zM368 752h-139v123h139v-123zM114 752h-139v123h139v-123z" />
    <glyph glyph-name="Eth" unicode="&#xd0;" horiz-adv-x="1007" 
d="M17 428h333v-157h-115v-105h360q183 0 183 185v184h-713v165h883v-352q0 -82 -23.5 -146.5t-68 -109.5t-109.5 -68.5t-148 -23.5h-534v271h-48v157z" />
    <glyph glyph-name="Ntilde" unicode="&#xd1;" horiz-adv-x="1080" 
d="M65 0zM1013 0h-180q-145 198 -283.5 324t-275.5 178q-10 3 -21.5 7.5t-24.5 9.5q3 -38 3 -49v-470h-166v700h147q84 -27 164.5 -70t157 -98t148 -120t137.5 -136l31 -33q-3 31 -3 46v411h166v-700zM289 859h502v-100h-502v100z" />
    <glyph glyph-name="Ograve" unicode="&#xd2;" horiz-adv-x="1050" 
d="M58 0zM817 535h-406q-53 0 -88 -9t-56 -30.5t-30 -57.5t-9 -90v-182h406q51 0 86 8.5t56.5 29.5t31 57t9.5 90v184zM987 700v-352q0 -82 -23.5 -146.5t-68 -109.5t-109.5 -68.5t-148 -23.5h-580v351q0 80 23.5 144.5t68.5 110t110 70t148 24.5h579zM351 921l328 -120v-42
h-328v162z" />
    <glyph glyph-name="Oacute" unicode="&#xd3;" horiz-adv-x="1050" 
d="M58 0zM817 535h-406q-53 0 -88 -9t-56 -30.5t-30 -57.5t-9 -90v-182h406q51 0 86 8.5t56.5 29.5t31 57t9.5 90v184zM987 700v-352q0 -82 -23.5 -146.5t-68 -109.5t-109.5 -68.5t-148 -23.5h-580v351q0 80 23.5 144.5t68.5 110t110 70t148 24.5h579zM770 759h-328v42
l328 120v-162z" />
    <glyph glyph-name="Ocircumflex" unicode="&#xd4;" horiz-adv-x="1050" 
d="M58 0zM817 535h-406q-53 0 -88 -9t-56 -30.5t-30 -57.5t-9 -90v-182h406q51 0 86 8.5t56.5 29.5t31 57t9.5 90v184zM987 700v-352q0 -82 -23.5 -146.5t-68 -109.5t-109.5 -68.5t-148 -23.5h-580v351q0 80 23.5 144.5t68.5 110t110 70t148 24.5h579zM370 801l190 120
l190 -120v-42h-380v42z" />
    <glyph glyph-name="Otilde" unicode="&#xd5;" horiz-adv-x="1050" 
d="M58 0zM817 535h-406q-53 0 -88 -9t-56 -30.5t-30 -57.5t-9 -90v-182h406q51 0 86 8.5t56.5 29.5t31 57t9.5 90v184zM987 700v-352q0 -82 -23.5 -146.5t-68 -109.5t-109.5 -68.5t-148 -23.5h-580v351q0 80 23.5 144.5t68.5 110t110 70t148 24.5h579zM310 859h502v-100
h-502v100z" />
    <glyph glyph-name="Odieresis" unicode="&#xd6;" horiz-adv-x="1050" 
d="M58 0zM817 535h-406q-53 0 -88 -9t-56 -30.5t-30 -57.5t-9 -90v-182h406q51 0 86 8.5t56.5 29.5t31 57t9.5 90v184zM987 700v-352q0 -82 -23.5 -146.5t-68 -109.5t-109.5 -68.5t-148 -23.5h-580v351q0 80 23.5 144.5t68.5 110t110 70t148 24.5h579zM757 752h-139v123h139
v-123zM503 752h-139v123h139v-123z" />
    <glyph glyph-name="multiply" unicode="&#xd7;" horiz-adv-x="446" 
d="M330 168l-105 105l-105 -105l-82 80l105 105l-105 105l79 79l105 -105l105 105l81 -81l-105 -105l105 -105z" />
    <glyph glyph-name="Oslash" unicode="&#xd8;" horiz-adv-x="1050" 
d="M987 620l63 28v-108l-63 -28v-164q0 -82 -23.5 -146.5t-68 -109.5t-109.5 -68.5t-148 -23.5h-580v87l-58 -26v108l58 27v155q0 80 23.5 144.5t68.5 110t110 70t148 24.5h579v-80zM634 166q51 0 86 8.5t56.5 29.5t31 57t9.5 90v83l-587 -268h404zM801 535h-390
q-53 0 -88 -9t-56 -30.5t-30 -57.5t-9 -90v-74z" />
    <glyph glyph-name="Ugrave" unicode="&#xd9;" 
d="M65 0zM235 700v-341q0 -193 262 -193h281v534h170v-700h-495q-89 0 -160.5 24t-122 71t-78 116t-27.5 159v330h170zM293 921l328 -120v-42h-328v162z" />
    <glyph glyph-name="Uacute" unicode="&#xda;" 
d="M65 0zM235 700v-341q0 -193 262 -193h281v534h170v-700h-495q-89 0 -160.5 24t-122 71t-78 116t-27.5 159v330h170zM712 759h-328v42l328 120v-162z" />
    <glyph glyph-name="Ucircumflex" unicode="&#xdb;" 
d="M65 0zM235 700v-341q0 -193 262 -193h281v534h170v-700h-495q-89 0 -160.5 24t-122 71t-78 116t-27.5 159v330h170zM312 801l190 120l190 -120v-42h-380v42z" />
    <glyph glyph-name="Udieresis" unicode="&#xdc;" 
d="M65 0zM235 700v-341q0 -193 262 -193h281v534h170v-700h-495q-89 0 -160.5 24t-122 71t-78 116t-27.5 159v330h170zM699 752h-139v123h139v-123zM445 752h-139v123h139v-123z" />
    <glyph glyph-name="Yacute" unicode="&#xdd;" horiz-adv-x="1044" 
d="M65 0zM985 700v-352q0 -82 -23 -146.5t-67.5 -109.5t-109.5 -68.5t-149 -23.5h-571v166h567q78 0 118.5 26.5t54.5 77.5h-740v430h170v-277h580v277h170zM731 759h-328v42l328 120v-162z" />
    <glyph glyph-name="Thorn" unicode="&#xde;" horiz-adv-x="1012" 
d="M65 0v700h170v-148h732v-134q0 -296 -319 -296h-334v158h370q53 0 81.5 27.5t36.5 79.5h-567v-387h-170z" />
    <glyph glyph-name="germandbls" unicode="&#xdf;" horiz-adv-x="1953" 
d="M59 0zM914 535h-573q-107 0 -120 -107h696v-133q0 -295 -318 -295h-540v166h576q52 0 81.5 27t37.5 78h-695v134q0 295 319 295h536v-165zM1890 535h-573q-107 0 -120 -107h696v-133q0 -295 -318 -295h-540v166h576q52 0 81.5 27t37.5 78h-695v134q0 295 319 295h536
v-165z" />
    <glyph glyph-name="agrave" unicode="&#xe0;" horiz-adv-x="1036" 
d="M59 0zM799 535h-308q-77 0 -123.5 -8t-73 -22.5t-38 -35t-16.5 -44.5h559v110zM970 0h-171v271h-570v-271h-170v351q0 82 23.5 147t68 110t109.5 68.5t148 23.5h562v-700zM345 921l328 -120v-42h-328v162z" />
    <glyph glyph-name="aacute" unicode="&#xe1;" horiz-adv-x="1036" 
d="M59 0zM799 535h-308q-77 0 -123.5 -8t-73 -22.5t-38 -35t-16.5 -44.5h559v110zM970 0h-171v271h-570v-271h-170v351q0 82 23.5 147t68 110t109.5 68.5t148 23.5h562v-700zM764 759h-328v42l328 120v-162z" />
    <glyph glyph-name="acircumflex" unicode="&#xe2;" horiz-adv-x="1036" 
d="M59 0zM799 535h-308q-77 0 -123.5 -8t-73 -22.5t-38 -35t-16.5 -44.5h559v110zM970 0h-171v271h-570v-271h-170v351q0 82 23.5 147t68 110t109.5 68.5t148 23.5h562v-700zM364 801l190 120l190 -120v-42h-380v42z" />
    <glyph glyph-name="atilde" unicode="&#xe3;" horiz-adv-x="1036" 
d="M59 0zM799 535h-308q-77 0 -123.5 -8t-73 -22.5t-38 -35t-16.5 -44.5h559v110zM970 0h-171v271h-570v-271h-170v351q0 82 23.5 147t68 110t109.5 68.5t148 23.5h562v-700zM303 859h502v-100h-502v100z" />
    <glyph glyph-name="adieresis" unicode="&#xe4;" horiz-adv-x="1036" 
d="M59 0zM799 535h-308q-77 0 -123.5 -8t-73 -22.5t-38 -35t-16.5 -44.5h559v110zM970 0h-171v271h-570v-271h-170v351q0 82 23.5 147t68 110t109.5 68.5t148 23.5h562v-700zM751 752h-139v123h139v-123zM497 752h-139v123h139v-123z" />
    <glyph glyph-name="aring" unicode="&#xe5;" horiz-adv-x="1036" 
d="M59 0zM799 535h-308q-77 0 -123.5 -8t-73 -22.5t-38 -35t-16.5 -44.5h559v110zM970 0h-171v271h-570v-271h-170v351q0 82 23.5 147t68 110t109.5 68.5t148 23.5h562v-700zM611 869h-79q-21 0 -28 -7.5t-7 -29.5v-35h79q21 0 28 7.5t7 28.5v36zM671 921v-90
q0 -42 -23 -64.5t-66 -22.5h-145v89q0 41 22.5 64.5t64.5 23.5h147z" />
    <glyph glyph-name="ae" unicode="&#xe6;" horiz-adv-x="1752" 
d="M59 0zM799 271h-570v-271h-170v351q0 82 23.5 147t68 110t109.5 68.5t148 23.5h1283v-165h-721v-107h699v-157h-699v-105h721v-166h-892v271zM799 535h-308q-76 0 -123 -8t-73.5 -22.5t-38 -34t-16.5 -42.5h559v107z" />
    <glyph glyph-name="ccedilla" unicode="&#xe7;" horiz-adv-x="976" 
d="M58 0zM932 0h-874v351q0 82 23.5 147t68 110t109.5 68.5t149 23.5h524v-165h-521q-183 0 -183 -187v-182h704v-166zM334 -63h380v-42l-190 -121l-190 121v42z" />
    <glyph glyph-name="egrave" unicode="&#xe8;" horiz-adv-x="983" 
d="M58 0zM946 535h-718v-107h700v-157h-691q16 -51 56 -78t118 -27h535v-166h-538q-81 0 -146 24.5t-110.5 69.5t-69.5 109.5t-24 144.5v352h888v-165zM282 921l328 -120v-42h-328v162z" />
    <glyph glyph-name="eacute" unicode="&#xe9;" horiz-adv-x="983" 
d="M58 0zM946 535h-718v-107h700v-157h-691q16 -51 56 -78t118 -27h535v-166h-538q-81 0 -146 24.5t-110.5 69.5t-69.5 109.5t-24 144.5v352h888v-165zM700 759h-328v42l328 120v-162z" />
    <glyph glyph-name="ecircumflex" unicode="&#xea;" horiz-adv-x="983" 
d="M58 0zM946 535h-718v-107h700v-157h-691q16 -51 56 -78t118 -27h535v-166h-538q-81 0 -146 24.5t-110.5 69.5t-69.5 109.5t-24 144.5v352h888v-165zM301 801l190 120l190 -120v-42h-380v42z" />
    <glyph glyph-name="edieresis" unicode="&#xeb;" horiz-adv-x="983" 
d="M58 0zM946 535h-718v-107h700v-157h-691q16 -51 56 -78t118 -27h535v-166h-538q-81 0 -146 24.5t-110.5 69.5t-69.5 109.5t-24 144.5v352h888v-165zM687 752h-139v123h139v-123zM433 752h-139v123h139v-123z" />
    <glyph glyph-name="igrave" unicode="&#xec;" horiz-adv-x="327" 
d="M0 0zM259 0h-170v700h170v-700zM-32 921l328 -120v-42h-328v162z" />
    <glyph glyph-name="iacute" unicode="&#xed;" horiz-adv-x="322" 
d="M35 0zM235 0h-170v700h170v-700zM363 759h-328v42l328 120v-162z" />
    <glyph glyph-name="icircumflex" unicode="&#xee;" horiz-adv-x="336" 
d="M0 0zM251 0h-170v700h170v-700zM-21 801l190 120l190 -120v-42h-380v42z" />
    <glyph glyph-name="idieresis" unicode="&#xef;" horiz-adv-x="341" 
d="M0 0zM253 0h-170v700h170v-700zM368 752h-139v123h139v-123zM114 752h-139v123h139v-123z" />
    <glyph glyph-name="eth" unicode="&#xf0;" horiz-adv-x="1007" 
d="M17 0zM17 428h333v-157h-115v-105h360q183 0 183 185v184h-713v165h883v-352q0 -82 -23.5 -146.5t-68 -109.5t-109.5 -68.5t-148 -23.5h-534v271h-48v157z" />
    <glyph glyph-name="ntilde" unicode="&#xf1;" horiz-adv-x="1080" 
d="M65 0zM1013 0h-180q-145 198 -283.5 324t-275.5 178q-10 3 -21.5 7.5t-24.5 9.5q3 -38 3 -49v-470h-166v700h147q84 -27 164.5 -70t157 -98t148 -120t137.5 -136l31 -33q-3 31 -3 46v411h166v-700zM289 859h502v-100h-502v100z" />
    <glyph glyph-name="ograve" unicode="&#xf2;" horiz-adv-x="1050" 
d="M58 0zM817 535h-406q-53 0 -88 -9t-56 -30.5t-30 -57.5t-9 -90v-182h406q51 0 86 8.5t56.5 29.5t31 57t9.5 90v184zM987 700v-352q0 -82 -23.5 -146.5t-68 -109.5t-109.5 -68.5t-148 -23.5h-580v351q0 80 23.5 144.5t68.5 110t110 70t148 24.5h579zM351 921l328 -120v-42
h-328v162z" />
    <glyph glyph-name="oacute" unicode="&#xf3;" horiz-adv-x="1050" 
d="M58 0zM817 535h-406q-53 0 -88 -9t-56 -30.5t-30 -57.5t-9 -90v-182h406q51 0 86 8.5t56.5 29.5t31 57t9.5 90v184zM987 700v-352q0 -82 -23.5 -146.5t-68 -109.5t-109.5 -68.5t-148 -23.5h-580v351q0 80 23.5 144.5t68.5 110t110 70t148 24.5h579zM770 759h-328v42
l328 120v-162z" />
    <glyph glyph-name="ocircumflex" unicode="&#xf4;" horiz-adv-x="1050" 
d="M58 0zM817 535h-406q-53 0 -88 -9t-56 -30.5t-30 -57.5t-9 -90v-182h406q51 0 86 8.5t56.5 29.5t31 57t9.5 90v184zM987 700v-352q0 -82 -23.5 -146.5t-68 -109.5t-109.5 -68.5t-148 -23.5h-580v351q0 80 23.5 144.5t68.5 110t110 70t148 24.5h579zM370 801l190 120
l190 -120v-42h-380v42z" />
    <glyph glyph-name="otilde" unicode="&#xf5;" horiz-adv-x="1050" 
d="M58 0zM817 535h-406q-53 0 -88 -9t-56 -30.5t-30 -57.5t-9 -90v-182h406q51 0 86 8.5t56.5 29.5t31 57t9.5 90v184zM987 700v-352q0 -82 -23.5 -146.5t-68 -109.5t-109.5 -68.5t-148 -23.5h-580v351q0 80 23.5 144.5t68.5 110t110 70t148 24.5h579zM310 859h502v-100
h-502v100z" />
    <glyph glyph-name="odieresis" unicode="&#xf6;" horiz-adv-x="1050" 
d="M58 0zM817 535h-406q-53 0 -88 -9t-56 -30.5t-30 -57.5t-9 -90v-182h406q51 0 86 8.5t56.5 29.5t31 57t9.5 90v184zM987 700v-352q0 -82 -23.5 -146.5t-68 -109.5t-109.5 -68.5t-148 -23.5h-580v351q0 80 23.5 144.5t68.5 110t110 70t148 24.5h579zM757 752h-139v123h139
v-123zM503 752h-139v123h139v-123z" />
    <glyph glyph-name="divide" unicode="&#xf7;" horiz-adv-x="446" 
d="M429 297h-412v111h412v-111zM293 523h-140v123h140v-123zM293 54h-140v124h140v-124z" />
    <glyph glyph-name="oslash" unicode="&#xf8;" horiz-adv-x="1050" 
d="M0 0zM987 620l63 28v-108l-63 -28v-164q0 -82 -23.5 -146.5t-68 -109.5t-109.5 -68.5t-148 -23.5h-580v87l-58 -26v108l58 27v155q0 80 23.5 144.5t68.5 110t110 70t148 24.5h579v-80zM634 166q51 0 86 8.5t56.5 29.5t31 57t9.5 90v83l-587 -268h404zM801 535h-390
q-53 0 -88 -9t-56 -30.5t-30 -57.5t-9 -90v-74z" />
    <glyph glyph-name="ugrave" unicode="&#xf9;" 
d="M65 0zM235 700v-341q0 -193 262 -193h281v534h170v-700h-495q-89 0 -160.5 24t-122 71t-78 116t-27.5 159v330h170zM293 921l328 -120v-42h-328v162z" />
    <glyph glyph-name="uacute" unicode="&#xfa;" 
d="M65 0zM235 700v-341q0 -193 262 -193h281v534h170v-700h-495q-89 0 -160.5 24t-122 71t-78 116t-27.5 159v330h170zM712 759h-328v42l328 120v-162z" />
    <glyph glyph-name="ucircumflex" unicode="&#xfb;" 
d="M65 0zM235 700v-341q0 -193 262 -193h281v534h170v-700h-495q-89 0 -160.5 24t-122 71t-78 116t-27.5 159v330h170zM312 801l190 120l190 -120v-42h-380v42z" />
    <glyph glyph-name="udieresis" unicode="&#xfc;" 
d="M65 0zM235 700v-341q0 -193 262 -193h281v534h170v-700h-495q-89 0 -160.5 24t-122 71t-78 116t-27.5 159v330h170zM699 752h-139v123h139v-123zM445 752h-139v123h139v-123z" />
    <glyph glyph-name="yacute" unicode="&#xfd;" horiz-adv-x="1044" 
d="M65 0zM985 700v-352q0 -82 -23 -146.5t-67.5 -109.5t-109.5 -68.5t-149 -23.5h-571v166h567q78 0 118.5 26.5t54.5 77.5h-740v430h170v-277h580v277h170zM731 759h-328v42l328 120v-162z" />
    <glyph glyph-name="thorn" unicode="&#xfe;" horiz-adv-x="1012" 
d="M65 0zM65 0v700h170v-148h732v-134q0 -296 -319 -296h-334v158h370q53 0 81.5 27.5t36.5 79.5h-567v-387h-170z" />
    <glyph glyph-name="ydieresis" unicode="&#xff;" horiz-adv-x="1044" 
d="M65 0zM985 700v-352q0 -82 -23 -146.5t-67.5 -109.5t-109.5 -68.5t-149 -23.5h-571v166h567q78 0 118.5 26.5t54.5 77.5h-740v430h170v-277h580v277h170zM718 752h-139v123h139v-123zM464 752h-139v123h139v-123z" />
    <glyph glyph-name="Amacron" unicode="&#x100;" horiz-adv-x="1036" 
d="M59 0zM799 535h-308q-77 0 -123.5 -8t-73 -22.5t-38 -35t-16.5 -44.5h559v110zM970 0h-171v271h-570v-271h-170v351q0 82 23.5 147t68 110t109.5 68.5t148 23.5h562v-700zM303 859h502v-100h-502v100z" />
    <glyph glyph-name="amacron" unicode="&#x101;" horiz-adv-x="1036" 
d="M59 0zM799 535h-308q-77 0 -123.5 -8t-73 -22.5t-38 -35t-16.5 -44.5h559v110zM970 0h-171v271h-570v-271h-170v351q0 82 23.5 147t68 110t109.5 68.5t148 23.5h562v-700zM303 859h502v-100h-502v100z" />
    <glyph glyph-name="Abreve" unicode="&#x102;" horiz-adv-x="1036" 
d="M59 0zM799 535h-308q-77 0 -123.5 -8t-73 -22.5t-38 -35t-16.5 -44.5h559v110zM970 0h-171v271h-570v-271h-170v351q0 82 23.5 147t68 110t109.5 68.5t148 23.5h562v-700zM630 921h79v-41q0 -65 -30.5 -100.5t-87.5 -35.5h-192v177h79v-95h105q28 0 37.5 12.5t9.5 44.5
v38z" />
    <glyph glyph-name="abreve" unicode="&#x103;" horiz-adv-x="1036" 
d="M59 0zM799 535h-308q-77 0 -123.5 -8t-73 -22.5t-38 -35t-16.5 -44.5h559v110zM970 0h-171v271h-570v-271h-170v351q0 82 23.5 147t68 110t109.5 68.5t148 23.5h562v-700zM630 921h79v-41q0 -65 -30.5 -100.5t-87.5 -35.5h-192v177h79v-95h105q28 0 37.5 12.5t9.5 44.5
v38z" />
    <glyph glyph-name="Aogonek" unicode="&#x104;" horiz-adv-x="1036" 
d="M631 -277q0 104 46 174.5t122 102.5v271h-570v-271h-170v351q0 82 23.5 147t68 110t109.5 68.5t148 23.5h562v-700q-24 -9 -45.5 -22t-37.5 -28t-26.5 -30.5t-11.5 -30.5h139v-166h-357zM799 535h-308q-77 0 -123.5 -8t-73 -22.5t-38 -35t-16.5 -44.5h559v110z" />
    <glyph glyph-name="aogonek" unicode="&#x105;" horiz-adv-x="1036" 
d="M59 0zM631 -277q0 104 46 174.5t122 102.5v271h-570v-271h-170v351q0 82 23.5 147t68 110t109.5 68.5t148 23.5h562v-700q-24 -9 -45.5 -22t-37.5 -28t-26.5 -30.5t-11.5 -30.5h139v-166h-357zM799 535h-308q-77 0 -123.5 -8t-73 -22.5t-38 -35t-16.5 -44.5h559v110z" />
    <glyph glyph-name="Cacute" unicode="&#x106;" horiz-adv-x="976" 
d="M58 0zM932 0h-874v351q0 82 23.5 147t68 110t109.5 68.5t149 23.5h524v-165h-521q-183 0 -183 -187v-182h704v-166zM734 759h-328v42l328 120v-162z" />
    <glyph glyph-name="cacute" unicode="&#x107;" horiz-adv-x="976" 
d="M58 0zM932 0h-874v351q0 82 23.5 147t68 110t109.5 68.5t149 23.5h524v-165h-521q-183 0 -183 -187v-182h704v-166zM734 759h-328v42l328 120v-162z" />
    <glyph glyph-name="Cdotaccent" unicode="&#x10a;" horiz-adv-x="976" 
d="M58 0zM932 0h-874v351q0 82 23.5 147t68 110t109.5 68.5t149 23.5h524v-165h-521q-183 0 -183 -187v-182h704v-166zM594 752h-139v123h139v-123z" />
    <glyph glyph-name="cdotaccent" unicode="&#x10b;" horiz-adv-x="976" 
d="M58 0zM932 0h-874v351q0 82 23.5 147t68 110t109.5 68.5t149 23.5h524v-165h-521q-183 0 -183 -187v-182h704v-166zM594 752h-139v123h139v-123z" />
    <glyph glyph-name="Ccaron" unicode="&#x10c;" horiz-adv-x="976" 
d="M58 0zM932 0h-874v351q0 82 23.5 147t68 110t109.5 68.5t149 23.5h524v-165h-521q-183 0 -183 -187v-182h704v-166zM334 921h380v-42l-190 -120l-190 120v42z" />
    <glyph glyph-name="ccaron" unicode="&#x10d;" horiz-adv-x="976" 
d="M58 0zM932 0h-874v351q0 82 23.5 147t68 110t109.5 68.5t149 23.5h524v-165h-521q-183 0 -183 -187v-182h704v-166zM334 921h380v-42l-190 -120l-190 120v42z" />
    <glyph glyph-name="Dcaron" unicode="&#x10e;" horiz-adv-x="1007" 
d="M65 0zM778 535h-713v165h883v-352q0 -82 -23.5 -146.5t-68 -109.5t-109.5 -68.5t-148 -23.5h-534v428h170v-262h360q183 0 183 185v184zM313 921h380v-42l-190 -120l-190 120v42z" />
    <glyph glyph-name="dcaron" unicode="&#x10f;" horiz-adv-x="1007" 
d="M65 0zM778 535h-713v165h883v-352q0 -82 -23.5 -146.5t-68 -109.5t-109.5 -68.5t-148 -23.5h-534v428h170v-262h360q183 0 183 185v184zM313 921h380v-42l-190 -120l-190 120v42z" />
    <glyph glyph-name="Dcroat" unicode="&#x110;" horiz-adv-x="1007" 
d="M17 0zM17 428h333v-157h-115v-105h360q183 0 183 185v184h-713v165h883v-352q0 -82 -23.5 -146.5t-68 -109.5t-109.5 -68.5t-148 -23.5h-534v271h-48v157z" />
    <glyph glyph-name="dcroat" unicode="&#x111;" horiz-adv-x="1007" 
d="M17 0zM17 428h333v-157h-115v-105h360q183 0 183 185v184h-713v165h883v-352q0 -82 -23.5 -146.5t-68 -109.5t-109.5 -68.5t-148 -23.5h-534v271h-48v157z" />
    <glyph glyph-name="Emacron" unicode="&#x112;" horiz-adv-x="983" 
d="M58 0zM946 535h-718v-107h700v-157h-691q16 -51 56 -78t118 -27h535v-166h-538q-81 0 -146 24.5t-110.5 69.5t-69.5 109.5t-24 144.5v352h888v-165zM240 859h502v-100h-502v100z" />
    <glyph glyph-name="emacron" unicode="&#x113;" horiz-adv-x="983" 
d="M58 0zM946 535h-718v-107h700v-157h-691q16 -51 56 -78t118 -27h535v-166h-538q-81 0 -146 24.5t-110.5 69.5t-69.5 109.5t-24 144.5v352h888v-165zM240 859h502v-100h-502v100z" />
    <glyph glyph-name="Ebreve" unicode="&#x114;" horiz-adv-x="983" 
d="M58 0zM946 535h-718v-107h700v-157h-691q16 -51 56 -78t118 -27h535v-166h-538q-81 0 -146 24.5t-110.5 69.5t-69.5 109.5t-24 144.5v352h888v-165zM567 921h79v-41q0 -65 -30.5 -100.5t-87.5 -35.5h-192v177h79v-95h105q28 0 37.5 12.5t9.5 44.5v38z" />
    <glyph glyph-name="ebreve" unicode="&#x115;" horiz-adv-x="983" 
d="M58 0zM946 535h-718v-107h700v-157h-691q16 -51 56 -78t118 -27h535v-166h-538q-81 0 -146 24.5t-110.5 69.5t-69.5 109.5t-24 144.5v352h888v-165zM567 921h79v-41q0 -65 -30.5 -100.5t-87.5 -35.5h-192v177h79v-95h105q28 0 37.5 12.5t9.5 44.5v38z" />
    <glyph glyph-name="Edotaccent" unicode="&#x116;" horiz-adv-x="983" 
d="M58 0zM946 535h-718v-107h700v-157h-691q16 -51 56 -78t118 -27h535v-166h-538q-81 0 -146 24.5t-110.5 69.5t-69.5 109.5t-24 144.5v352h888v-165zM560 752h-139v123h139v-123z" />
    <glyph glyph-name="edotaccent" unicode="&#x117;" horiz-adv-x="983" 
d="M58 0zM946 535h-718v-107h700v-157h-691q16 -51 56 -78t118 -27h535v-166h-538q-81 0 -146 24.5t-110.5 69.5t-69.5 109.5t-24 144.5v352h888v-165zM560 752h-139v123h139v-123z" />
    <glyph glyph-name="Eogonek" unicode="&#x118;" horiz-adv-x="983" 
d="M608 -277q0 104 46.5 174.5t121.5 102.5h-368q-81 0 -146 24.5t-110.5 69.5t-69.5 109.5t-24 144.5v352h888v-165h-718v-107h610v-157h-601q16 -51 56 -78t118 -27h535v-166q-24 -9 -45 -22t-37.5 -28t-26.5 -30.5t-12 -30.5h140v-166h-357z" />
    <glyph glyph-name="eogonek" unicode="&#x119;" horiz-adv-x="983" 
d="M58 0zM608 -277q0 104 46.5 174.5t121.5 102.5h-368q-81 0 -146 24.5t-110.5 69.5t-69.5 109.5t-24 144.5v352h888v-165h-718v-107h610v-157h-601q16 -51 56 -78t118 -27h535v-166q-24 -9 -45 -22t-37.5 -28t-26.5 -30.5t-12 -30.5h140v-166h-357z" />
    <glyph glyph-name="Ecaron" unicode="&#x11a;" horiz-adv-x="983" 
d="M58 0zM946 535h-718v-107h700v-157h-691q16 -51 56 -78t118 -27h535v-166h-538q-81 0 -146 24.5t-110.5 69.5t-69.5 109.5t-24 144.5v352h888v-165zM301 921h380v-42l-190 -120l-190 120v42z" />
    <glyph glyph-name="ecaron" unicode="&#x11b;" horiz-adv-x="983" 
d="M58 0zM946 535h-718v-107h700v-157h-691q16 -51 56 -78t118 -27h535v-166h-538q-81 0 -146 24.5t-110.5 69.5t-69.5 109.5t-24 144.5v352h888v-165zM301 921h380v-42l-190 -120l-190 120v42z" />
    <glyph glyph-name="Gbreve" unicode="&#x11e;" horiz-adv-x="1034" 
d="M59 0zM974 700v-165h-563q-53 0 -88.5 -9t-56.5 -30.5t-29.5 -58.5t-8.5 -92v-179h580v105h-127v157h297v-428h-919v351q0 82 23 147t67.5 110t109.5 68.5t149 23.5h566zM630 921h79v-41q0 -65 -30.5 -100.5t-87.5 -35.5h-192v177h79v-95h105q28 0 37.5 12.5t9.5 44.5v38
z" />
    <glyph glyph-name="gbreve" unicode="&#x11f;" horiz-adv-x="1034" 
d="M59 0zM974 700v-165h-563q-53 0 -88.5 -9t-56.5 -30.5t-29.5 -58.5t-8.5 -92v-179h580v105h-127v157h297v-428h-919v351q0 82 23 147t67.5 110t109.5 68.5t149 23.5h566zM630 921h79v-41q0 -65 -30.5 -100.5t-87.5 -35.5h-192v177h79v-95h105q28 0 37.5 12.5t9.5 44.5v38
z" />
    <glyph glyph-name="Gdotaccent" unicode="&#x120;" horiz-adv-x="1034" 
d="M59 0zM974 700v-165h-563q-53 0 -88.5 -9t-56.5 -30.5t-29.5 -58.5t-8.5 -92v-179h580v105h-127v157h297v-428h-919v351q0 82 23 147t67.5 110t109.5 68.5t149 23.5h566zM623 752h-139v123h139v-123z" />
    <glyph glyph-name="gdotaccent" unicode="&#x121;" horiz-adv-x="1034" 
d="M59 0zM974 700v-165h-563q-53 0 -88.5 -9t-56.5 -30.5t-29.5 -58.5t-8.5 -92v-179h580v105h-127v157h297v-428h-919v351q0 82 23 147t67.5 110t109.5 68.5t149 23.5h566zM623 752h-139v123h139v-123z" />
    <glyph glyph-name="Gcommaaccent" unicode="&#x122;" horiz-adv-x="1034" 
d="M59 0zM974 700v-165h-563q-53 0 -88.5 -9t-56.5 -30.5t-29.5 -58.5t-8.5 -92v-179h580v105h-127v157h297v-428h-919v351q0 82 23 147t67.5 110t109.5 68.5t149 23.5h566zM291 -63h380v-42l-190 -121l-190 121v42z" />
    <glyph glyph-name="gcommaaccent" unicode="&#x123;" horiz-adv-x="1034" 
d="M59 0zM974 700v-165h-563q-53 0 -88.5 -9t-56.5 -30.5t-29.5 -58.5t-8.5 -92v-179h580v105h-127v157h297v-428h-919v351q0 82 23 147t67.5 110t109.5 68.5t149 23.5h566zM291 -63h380v-42l-190 -121l-190 121v42z" />
    <glyph glyph-name="Hbar" unicode="&#x126;" horiz-adv-x="1014" 
d="M0 615h65v85h170v-85h543v85h170v-85h66v-100h-66v-515h-170v270h-543v-270h-170v515h-65v100zM778 428v87h-543v-87h543z" />
    <glyph glyph-name="hbar" unicode="&#x127;" horiz-adv-x="1014" 
d="M0 0zM0 615h65v85h170v-85h543v85h170v-85h66v-100h-66v-515h-170v270h-543v-270h-170v515h-65v100zM778 428v87h-543v-87h543z" />
    <glyph glyph-name="uni012A" unicode="&#x12a;" horiz-adv-x="450" 
d="M0 0zM308 0h-170v700h170v-700zM-24 859h502v-100h-502v100z" />
    <glyph glyph-name="imacron" unicode="&#x12b;" horiz-adv-x="450" 
d="M0 0zM308 0h-170v700h170v-700zM-24 859h502v-100h-502v100z" />
    <glyph glyph-name="Ibreve" unicode="&#x12c;" horiz-adv-x="330" 
d="M11 0zM248 0h-170v700h170v-700zM242 921h79v-41q0 -65 -30.5 -100.5t-87.5 -35.5h-192v177h79v-95h105q28 0 37.5 12.5t9.5 44.5v38z" />
    <glyph glyph-name="ibreve" unicode="&#x12d;" horiz-adv-x="330" 
d="M11 0zM248 0h-170v700h170v-700zM242 921h79v-41q0 -65 -30.5 -100.5t-87.5 -35.5h-192v177h79v-95h105q28 0 37.5 12.5t9.5 44.5v38z" />
    <glyph glyph-name="Iogonek" unicode="&#x12e;" horiz-adv-x="303" 
d="M-103 -277q0 104 46.5 174.5t121.5 102.5v700h170v-700q-24 -9 -45 -22t-37.5 -28t-26.5 -30.5t-12 -30.5h140v-166h-357z" />
    <glyph glyph-name="iogonek" unicode="&#x12f;" horiz-adv-x="303" 
d="M0 0zM-103 -277q0 104 46.5 174.5t121.5 102.5v700h170v-700q-24 -9 -45 -22t-37.5 -28t-26.5 -30.5t-12 -30.5h140v-166h-357z" />
    <glyph glyph-name="Idotaccent" unicode="&#x130;" horiz-adv-x="303" 
d="M65 0zM235 0h-170v700h170v-700zM221 752h-139v123h139v-123z" />
    <glyph glyph-name="dotlessi" unicode="&#x131;" horiz-adv-x="303" 
d="M65 0zM235 0h-170v700h170v-700z" />
    <glyph glyph-name="IJ" unicode="&#x132;" horiz-adv-x="923" 
d="M235 74h-170v626h170v-626zM560 700h297v-978h-448q-72 0 -131.5 20.5t-103.5 56.5t-72 85.5t-37 108.5h176q34 -105 172 -105h273v647h-126v165z" />
    <glyph glyph-name="ij" unicode="&#x133;" horiz-adv-x="923" 
d="M65 0zM235 74h-170v626h170v-626zM560 700h297v-978h-448q-72 0 -131.5 20.5t-103.5 56.5t-72 85.5t-37 108.5h176q34 -105 172 -105h273v647h-126v165z" />
    <glyph glyph-name="Kcommaaccent" unicode="&#x136;" horiz-adv-x="1021" 
d="M65 0zM235 0h-170v700h170v-272h266l238 272h213l-250 -279q124 -24 192.5 -110t68.5 -230v-81h-171v85q0 186 -183 186h-374v-271zM320 -63h380v-42l-190 -121l-190 121v42z" />
    <glyph glyph-name="kcommaaccent" unicode="&#x137;" horiz-adv-x="1021" 
d="M65 0zM235 0h-170v700h170v-272h266l238 272h213l-250 -279q124 -24 192.5 -110t68.5 -230v-81h-171v85q0 186 -183 186h-374v-271zM320 -63h380v-42l-190 -121l-190 121v42z" />
    <glyph glyph-name="Lacute" unicode="&#x139;" horiz-adv-x="966" 
d="M65 0zM235 700v-534h365q135 0 171 105h176q-23 -135 -112 -203t-232 -68h-538v700h170zM439 759h-328v42l328 120v-162z" />
    <glyph glyph-name="lacute" unicode="&#x13a;" horiz-adv-x="966" 
d="M65 0zM235 700v-534h365q135 0 171 105h176q-23 -135 -112 -203t-232 -68h-538v700h170zM439 759h-328v42l328 120v-162z" />
    <glyph glyph-name="Lcommaaccent" unicode="&#x13b;" horiz-adv-x="966" 
d="M65 0zM235 700v-534h365q135 0 171 105h176q-23 -135 -112 -203t-232 -68h-538v700h170zM256 -63h380v-42l-190 -121l-190 121v42z" />
    <glyph glyph-name="lcommaaccent" unicode="&#x13c;" horiz-adv-x="966" 
d="M65 0zM235 700v-534h365q135 0 171 105h176q-23 -135 -112 -203t-232 -68h-538v700h170zM256 -63h380v-42l-190 -121l-190 121v42z" />
    <glyph glyph-name="Lcaron" unicode="&#x13d;" horiz-adv-x="966" 
d="M65 0zM235 700v-534h365q135 0 171 105h176q-23 -135 -112 -203t-232 -68h-538v700h170zM411 483h-83v217h142z" />
    <glyph glyph-name="lcaron" unicode="&#x13e;" horiz-adv-x="966" 
d="M65 0zM235 700v-534h365q135 0 171 105h176q-23 -135 -112 -203t-232 -68h-538v700h170zM411 483h-83v217h142z" />
    <glyph glyph-name="Ldot" unicode="&#x13f;" horiz-adv-x="966" 
d="M65 0zM235 700v-534h365q135 0 171 105h176q-23 -135 -112 -203t-232 -68h-538v700h170zM468 325h-139v123h139v-123z" />
    <glyph glyph-name="ldot" unicode="&#x140;" horiz-adv-x="966" 
d="M65 0zM235 700v-534h365q135 0 171 105h176q-23 -135 -112 -203t-232 -68h-538v700h170zM468 325h-139v123h139v-123z" />
    <glyph glyph-name="Lslash" unicode="&#x141;" horiz-adv-x="987" 
d="M566 475l-310 -37v-272h364q136 0 172 105h176q-23 -135 -112.5 -203t-231.5 -68h-538v418l-65 -7v139l65 7v143h170v-123l310 37v-139z" />
    <glyph glyph-name="lslash" unicode="&#x142;" horiz-adv-x="987" 
d="M21 0zM566 475l-310 -37v-272h364q136 0 172 105h176q-23 -135 -112.5 -203t-231.5 -68h-538v418l-65 -7v139l65 7v143h170v-123l310 37v-139z" />
    <glyph glyph-name="Nacute" unicode="&#x143;" horiz-adv-x="1080" 
d="M65 0zM1013 0h-180q-145 198 -283.5 324t-275.5 178q-10 3 -21.5 7.5t-24.5 9.5q3 -38 3 -49v-470h-166v700h147q84 -27 164.5 -70t157 -98t148 -120t137.5 -136l31 -33q-3 31 -3 46v411h166v-700zM749 759h-328v42l328 120v-162z" />
    <glyph glyph-name="nacute" unicode="&#x144;" horiz-adv-x="1080" 
d="M65 0zM1013 0h-180q-145 198 -283.5 324t-275.5 178q-10 3 -21.5 7.5t-24.5 9.5q3 -38 3 -49v-470h-166v700h147q84 -27 164.5 -70t157 -98t148 -120t137.5 -136l31 -33q-3 31 -3 46v411h166v-700zM749 759h-328v42l328 120v-162z" />
    <glyph glyph-name="Ncommaaccent" unicode="&#x145;" horiz-adv-x="1080" 
d="M65 0zM1013 0h-180q-145 198 -283.5 324t-275.5 178q-10 3 -21.5 7.5t-24.5 9.5q3 -38 3 -49v-470h-166v700h147q84 -27 164.5 -70t157 -98t148 -120t137.5 -136l31 -33q-3 31 -3 46v411h166v-700zM332 -63h380v-42l-190 -121l-190 121v42z" />
    <glyph glyph-name="ncommaaccent" unicode="&#x146;" horiz-adv-x="1080" 
d="M65 0zM1013 0h-180q-145 198 -283.5 324t-275.5 178q-10 3 -21.5 7.5t-24.5 9.5q3 -38 3 -49v-470h-166v700h147q84 -27 164.5 -70t157 -98t148 -120t137.5 -136l31 -33q-3 31 -3 46v411h166v-700zM332 -63h380v-42l-190 -121l-190 121v42z" />
    <glyph glyph-name="Ncaron" unicode="&#x147;" horiz-adv-x="1080" 
d="M65 0zM1013 0h-180q-145 198 -283.5 324t-275.5 178q-10 3 -21.5 7.5t-24.5 9.5q3 -38 3 -49v-470h-166v700h147q84 -27 164.5 -70t157 -98t148 -120t137.5 -136l31 -33q-3 31 -3 46v411h166v-700zM350 921h380v-42l-190 -120l-190 120v42z" />
    <glyph glyph-name="ncaron" unicode="&#x148;" horiz-adv-x="1080" 
d="M65 0zM1013 0h-180q-145 198 -283.5 324t-275.5 178q-10 3 -21.5 7.5t-24.5 9.5q3 -38 3 -49v-470h-166v700h147q84 -27 164.5 -70t157 -98t148 -120t137.5 -136l31 -33q-3 31 -3 46v411h166v-700zM350 921h380v-42l-190 -120l-190 120v42z" />
    <glyph glyph-name="Eng" unicode="&#x14a;" horiz-adv-x="1080" 
d="M1013 -277h-275q-72 0 -131.5 20.5t-103.5 56.5t-72 85.5t-37 108.5h176q34 -105 172 -105h101v94q-152 209 -292.5 338t-276.5 181q-10 3 -21.5 7.5t-24.5 9.5q3 -38 3 -49v-470h-166v700h147q84 -27 164.5 -70t157 -98t148 -120t137.5 -136l31 -33q-3 31 -3 46v411h166
v-977z" />
    <glyph glyph-name="eng" unicode="&#x14b;" horiz-adv-x="1080" 
d="M65 0zM1013 -277h-275q-72 0 -131.5 20.5t-103.5 56.5t-72 85.5t-37 108.5h176q34 -105 172 -105h101v94q-152 209 -292.5 338t-276.5 181q-10 3 -21.5 7.5t-24.5 9.5q3 -38 3 -49v-470h-166v700h147q84 -27 164.5 -70t157 -98t148 -120t137.5 -136l31 -33q-3 31 -3 46
v411h166v-977z" />
    <glyph glyph-name="Omacron" unicode="&#x14c;" horiz-adv-x="1050" 
d="M58 0zM817 535h-406q-53 0 -88 -9t-56 -30.5t-30 -57.5t-9 -90v-182h406q51 0 86 8.5t56.5 29.5t31 57t9.5 90v184zM987 700v-352q0 -82 -23.5 -146.5t-68 -109.5t-109.5 -68.5t-148 -23.5h-580v351q0 80 23.5 144.5t68.5 110t110 70t148 24.5h579zM310 859h502v-100
h-502v100z" />
    <glyph glyph-name="omacron" unicode="&#x14d;" horiz-adv-x="1050" 
d="M58 0zM817 535h-406q-53 0 -88 -9t-56 -30.5t-30 -57.5t-9 -90v-182h406q51 0 86 8.5t56.5 29.5t31 57t9.5 90v184zM987 700v-352q0 -82 -23.5 -146.5t-68 -109.5t-109.5 -68.5t-148 -23.5h-580v351q0 80 23.5 144.5t68.5 110t110 70t148 24.5h579zM310 859h502v-100
h-502v100z" />
    <glyph glyph-name="Obreve" unicode="&#x14e;" horiz-adv-x="1050" 
d="M58 0zM817 535h-406q-53 0 -88 -9t-56 -30.5t-30 -57.5t-9 -90v-182h406q51 0 86 8.5t56.5 29.5t31 57t9.5 90v184zM987 700v-352q0 -82 -23.5 -146.5t-68 -109.5t-109.5 -68.5t-148 -23.5h-580v351q0 80 23.5 144.5t68.5 110t110 70t148 24.5h579zM637 921h79v-41
q0 -65 -30.5 -100.5t-87.5 -35.5h-192v177h79v-95h105q28 0 37.5 12.5t9.5 44.5v38z" />
    <glyph glyph-name="obreve" unicode="&#x14f;" horiz-adv-x="1050" 
d="M58 0zM817 535h-406q-53 0 -88 -9t-56 -30.5t-30 -57.5t-9 -90v-182h406q51 0 86 8.5t56.5 29.5t31 57t9.5 90v184zM987 700v-352q0 -82 -23.5 -146.5t-68 -109.5t-109.5 -68.5t-148 -23.5h-580v351q0 80 23.5 144.5t68.5 110t110 70t148 24.5h579zM637 921h79v-41
q0 -65 -30.5 -100.5t-87.5 -35.5h-192v177h79v-95h105q28 0 37.5 12.5t9.5 44.5v38z" />
    <glyph glyph-name="Ohungarumlaut" unicode="&#x150;" horiz-adv-x="1050" 
d="M58 0zM817 535h-406q-53 0 -88 -9t-56 -30.5t-30 -57.5t-9 -90v-182h406q51 0 86 8.5t56.5 29.5t31 57t9.5 90v184zM987 700v-352q0 -82 -23.5 -146.5t-68 -109.5t-109.5 -68.5t-148 -23.5h-580v351q0 80 23.5 144.5t68.5 110t110 70t148 24.5h579zM887 759h-328v42
l328 120v-162zM652 872l-132 -49v-64h-196v42l328 120v-49z" />
    <glyph glyph-name="ohungarumlaut" unicode="&#x151;" horiz-adv-x="1050" 
d="M58 0zM817 535h-406q-53 0 -88 -9t-56 -30.5t-30 -57.5t-9 -90v-182h406q51 0 86 8.5t56.5 29.5t31 57t9.5 90v184zM987 700v-352q0 -82 -23.5 -146.5t-68 -109.5t-109.5 -68.5t-148 -23.5h-580v351q0 80 23.5 144.5t68.5 110t110 70t148 24.5h579zM887 759h-328v42
l328 120v-162zM652 872l-132 -49v-64h-196v42l328 120v-49z" />
    <glyph glyph-name="OE" unicode="&#x152;" horiz-adv-x="1767" 
d="M1707 0h-1649v351q0 80 23.5 144.5t68.5 110t110 70t148 24.5h1299v-165h-719v-107h700v-157h-700v-105h719v-166zM817 535h-406q-53 0 -88 -9t-56 -30.5t-30 -57.5t-9 -90v-182h589v369z" />
    <glyph glyph-name="oe" unicode="&#x153;" horiz-adv-x="1767" 
d="M58 0zM1707 0h-1649v351q0 80 23.5 144.5t68.5 110t110 70t148 24.5h1299v-165h-719v-107h700v-157h-700v-105h719v-166zM817 535h-406q-53 0 -88 -9t-56 -30.5t-30 -57.5t-9 -90v-182h589v369z" />
    <glyph glyph-name="Racute" unicode="&#x154;" horiz-adv-x="1053" 
d="M65 0zM314 428h398q52 0 81 27.5t37 79.5h-595v-535h-170v700h930v-134q0 -265 -258 -292l266 -274h-206l-270 271h-213v157zM736 759h-328v42l328 120v-162z" />
    <glyph glyph-name="racute" unicode="&#x155;" horiz-adv-x="1053" 
d="M65 0zM314 428h398q52 0 81 27.5t37 79.5h-595v-535h-170v700h930v-134q0 -265 -258 -292l266 -274h-206l-270 271h-213v157zM736 759h-328v42l328 120v-162z" />
    <glyph glyph-name="Rcommaaccent" unicode="&#x156;" horiz-adv-x="1053" 
d="M65 0zM314 428h398q52 0 81 27.5t37 79.5h-595v-535h-170v700h930v-134q0 -265 -258 -292l266 -274h-206l-270 271h-213v157zM318 -63h380v-42l-190 -121l-190 121v42z" />
    <glyph glyph-name="rcommaaccent" unicode="&#x157;" horiz-adv-x="1053" 
d="M65 0zM314 428h398q52 0 81 27.5t37 79.5h-595v-535h-170v700h930v-134q0 -265 -258 -292l266 -274h-206l-270 271h-213v157zM318 -63h380v-42l-190 -121l-190 121v42z" />
    <glyph glyph-name="Rcaron" unicode="&#x158;" horiz-adv-x="1053" 
d="M65 0zM314 428h398q52 0 81 27.5t37 79.5h-595v-535h-170v700h930v-134q0 -265 -258 -292l266 -274h-206l-270 271h-213v157zM336 921h380v-42l-190 -120l-190 120v42z" />
    <glyph glyph-name="rcaron" unicode="&#x159;" horiz-adv-x="1053" 
d="M65 0zM314 428h398q52 0 81 27.5t37 79.5h-595v-535h-170v700h930v-134q0 -265 -258 -292l266 -274h-206l-270 271h-213v157zM336 921h380v-42l-190 -120l-190 120v42z" />
    <glyph glyph-name="Sacute" unicode="&#x15a;" horiz-adv-x="976" 
d="M59 0zM914 535h-573q-107 0 -120 -107h696v-133q0 -295 -318 -295h-540v166h576q52 0 81.5 27t37.5 78h-695v134q0 295 319 295h536v-165zM734 759h-328v42l328 120v-162z" />
    <glyph glyph-name="sacute" unicode="&#x15b;" horiz-adv-x="976" 
d="M59 0zM914 535h-573q-107 0 -120 -107h696v-133q0 -295 -318 -295h-540v166h576q52 0 81.5 27t37.5 78h-695v134q0 295 319 295h536v-165zM734 759h-328v42l328 120v-162z" />
    <glyph glyph-name="Scedilla" unicode="&#x15e;" horiz-adv-x="976" 
d="M59 0zM914 535h-573q-107 0 -120 -107h696v-133q0 -295 -318 -295h-540v166h576q52 0 81.5 27t37.5 78h-695v134q0 295 319 295h536v-165zM262 -63h380v-42l-190 -121l-190 121v42z" />
    <glyph glyph-name="scedilla" unicode="&#x15f;" horiz-adv-x="976" 
d="M59 0zM914 535h-573q-107 0 -120 -107h696v-133q0 -295 -318 -295h-540v166h576q52 0 81.5 27t37.5 78h-695v134q0 295 319 295h536v-165zM262 -63h380v-42l-190 -121l-190 121v42z" />
    <glyph glyph-name="Scaron" unicode="&#x160;" horiz-adv-x="976" 
d="M59 0zM914 535h-573q-107 0 -120 -107h696v-133q0 -295 -318 -295h-540v166h576q52 0 81.5 27t37.5 78h-695v134q0 295 319 295h536v-165zM334 921h380v-42l-190 -120l-190 120v42z" />
    <glyph glyph-name="scaron" unicode="&#x161;" horiz-adv-x="976" 
d="M59 0zM914 535h-573q-107 0 -120 -107h696v-133q0 -295 -318 -295h-540v166h576q52 0 81.5 27t37.5 78h-695v134q0 295 319 295h536v-165zM334 921h380v-42l-190 -120l-190 120v42z" />
    <glyph glyph-name="Tcedilla" unicode="&#x162;" horiz-adv-x="946" 
d="M26 0zM917 535h-322v-535h-170v535h-118q-111 0 -120 -107h-161q22 272 308 272h583v-165zM321 -63h380v-42l-190 -121l-190 121v42z" />
    <glyph glyph-name="tcedilla" unicode="&#x163;" horiz-adv-x="946" 
d="M26 0zM917 535h-322v-535h-170v535h-118q-111 0 -120 -107h-161q22 272 308 272h583v-165zM321 -63h380v-42l-190 -121l-190 121v42z" />
    <glyph glyph-name="Tcaron" unicode="&#x164;" horiz-adv-x="946" 
d="M26 0zM917 535h-322v-535h-170v535h-118q-111 0 -120 -107h-161q22 272 308 272h583v-165zM321 921h380v-42l-190 -120l-190 120v42z" />
    <glyph glyph-name="tcaron" unicode="&#x165;" horiz-adv-x="946" 
d="M26 0zM917 535h-322v-535h-170v535h-118q-111 0 -120 -107h-161q22 272 308 272h583v-165zM321 921h380v-42l-190 -120l-190 120v42z" />
    <glyph glyph-name="Tbar" unicode="&#x166;" horiz-adv-x="946" 
d="M719 333h-124v-333h-170v333h-122v112h122v90h-118q-111 0 -120 -107h-161q22 272 308 272h583v-165h-322v-90h124v-112z" />
    <glyph glyph-name="tbar" unicode="&#x167;" horiz-adv-x="946" 
d="M26 0zM719 333h-124v-333h-170v333h-122v112h122v90h-118q-111 0 -120 -107h-161q22 272 308 272h583v-165h-322v-90h124v-112z" />
    <glyph glyph-name="Utilde" unicode="&#x168;" 
d="M65 0zM235 700v-341q0 -193 262 -193h281v534h170v-700h-495q-89 0 -160.5 24t-122 71t-78 116t-27.5 159v330h170zM252 859h502v-100h-502v100z" />
    <glyph glyph-name="utilde" unicode="&#x169;" 
d="M65 0zM235 700v-341q0 -193 262 -193h281v534h170v-700h-495q-89 0 -160.5 24t-122 71t-78 116t-27.5 159v330h170zM252 859h502v-100h-502v100z" />
    <glyph glyph-name="Umacron" unicode="&#x16a;" 
d="M65 0zM235 700v-341q0 -193 262 -193h281v534h170v-700h-495q-89 0 -160.5 24t-122 71t-78 116t-27.5 159v330h170zM252 859h502v-100h-502v100z" />
    <glyph glyph-name="umacron" unicode="&#x16b;" 
d="M65 0zM235 700v-341q0 -193 262 -193h281v534h170v-700h-495q-89 0 -160.5 24t-122 71t-78 116t-27.5 159v330h170zM252 859h502v-100h-502v100z" />
    <glyph glyph-name="Ubreve" unicode="&#x16c;" 
d="M65 0zM235 700v-341q0 -193 262 -193h281v534h170v-700h-495q-89 0 -160.5 24t-122 71t-78 116t-27.5 159v330h170zM579 921h79v-41q0 -65 -30.5 -100.5t-87.5 -35.5h-192v177h79v-95h105q28 0 37.5 12.5t9.5 44.5v38z" />
    <glyph glyph-name="ubreve" unicode="&#x16d;" 
d="M65 0zM235 700v-341q0 -193 262 -193h281v534h170v-700h-495q-89 0 -160.5 24t-122 71t-78 116t-27.5 159v330h170zM579 921h79v-41q0 -65 -30.5 -100.5t-87.5 -35.5h-192v177h79v-95h105q28 0 37.5 12.5t9.5 44.5v38z" />
    <glyph glyph-name="Uring" unicode="&#x16e;" 
d="M65 0zM235 700v-341q0 -193 262 -193h281v534h170v-700h-495q-89 0 -160.5 24t-122 71t-78 116t-27.5 159v330h170zM560 869h-79q-21 0 -28 -7.5t-7 -29.5v-35h79q21 0 28 7.5t7 28.5v36zM620 921v-90q0 -42 -23 -64.5t-66 -22.5h-145v89q0 41 22.5 64.5t64.5 23.5h147z
" />
    <glyph glyph-name="uring" unicode="&#x16f;" 
d="M65 0zM235 700v-341q0 -193 262 -193h281v534h170v-700h-495q-89 0 -160.5 24t-122 71t-78 116t-27.5 159v330h170zM560 869h-79q-21 0 -28 -7.5t-7 -29.5v-35h79q21 0 28 7.5t7 28.5v36zM620 921v-90q0 -42 -23 -64.5t-66 -22.5h-145v89q0 41 22.5 64.5t64.5 23.5h147z
" />
    <glyph glyph-name="Uhungarumlaut" unicode="&#x170;" 
d="M65 0zM235 700v-341q0 -193 262 -193h281v534h170v-700h-495q-89 0 -160.5 24t-122 71t-78 116t-27.5 159v330h170zM829 759h-328v42l328 120v-162zM594 872l-132 -49v-64h-196v42l328 120v-49z" />
    <glyph glyph-name="uhungarumlaut" unicode="&#x171;" 
d="M65 0zM235 700v-341q0 -193 262 -193h281v534h170v-700h-495q-89 0 -160.5 24t-122 71t-78 116t-27.5 159v330h170zM829 759h-328v42l328 120v-162zM594 872l-132 -49v-64h-196v42l328 120v-49z" />
    <glyph glyph-name="Uogonek" unicode="&#x172;" 
d="M610 -277q0 104 46 174.5t122 102.5h-325q-89 0 -160.5 24t-122 71t-78 116t-27.5 159v330h170v-341q0 -193 262 -193h281v534h170v-700q-24 -9 -45.5 -22t-37.5 -28t-26.5 -30.5t-11.5 -30.5h139v-166h-356z" />
    <glyph glyph-name="uogonek" unicode="&#x173;" 
d="M65 0zM610 -277q0 104 46 174.5t122 102.5h-325q-89 0 -160.5 24t-122 71t-78 116t-27.5 159v330h170v-341q0 -193 262 -193h281v534h170v-700q-24 -9 -45.5 -22t-37.5 -28t-26.5 -30.5t-11.5 -30.5h139v-166h-356z" />
    <glyph glyph-name="Wcircumflex" unicode="&#x174;" horiz-adv-x="1231" 
d="M65 0zM715 251h-171v449h171v-449zM1171 0h-756q-78 0 -142.5 23.5t-110.5 66t-71.5 101.5t-25.5 130v379h170v-351q0 -183 180 -183h587v534h169v-700zM440 801l190 120l190 -120v-42h-380v42z" />
    <glyph glyph-name="wcircumflex" unicode="&#x175;" horiz-adv-x="1231" 
d="M65 0zM715 251h-171v449h171v-449zM1171 0h-756q-78 0 -142.5 23.5t-110.5 66t-71.5 101.5t-25.5 130v379h170v-351q0 -183 180 -183h587v534h169v-700zM440 801l190 120l190 -120v-42h-380v42z" />
    <glyph glyph-name="Ycircumflex" unicode="&#x176;" horiz-adv-x="1044" 
d="M65 0zM985 700v-352q0 -82 -23 -146.5t-67.5 -109.5t-109.5 -68.5t-149 -23.5h-571v166h567q78 0 118.5 26.5t54.5 77.5h-740v430h170v-277h580v277h170zM332 801l190 120l190 -120v-42h-380v42z" />
    <glyph glyph-name="ycircumflex" unicode="&#x177;" horiz-adv-x="1044" 
d="M65 0zM985 700v-352q0 -82 -23 -146.5t-67.5 -109.5t-109.5 -68.5t-149 -23.5h-571v166h567q78 0 118.5 26.5t54.5 77.5h-740v430h170v-277h580v277h170zM332 801l190 120l190 -120v-42h-380v42z" />
    <glyph glyph-name="Ydieresis" unicode="&#x178;" horiz-adv-x="1044" 
d="M65 0zM985 700v-352q0 -82 -23 -146.5t-67.5 -109.5t-109.5 -68.5t-149 -23.5h-571v166h567q78 0 118.5 26.5t54.5 77.5h-740v430h170v-277h580v277h170zM718 752h-139v123h139v-123zM464 752h-139v123h139v-123z" />
    <glyph glyph-name="Zacute" unicode="&#x179;" horiz-adv-x="986" 
d="M27 0zM934 700l-530 -549h269q53 0 82 32t37 88h163q-14 -271 -318 -271h-610l544 550h-464v150h827zM702 759h-328v42l328 120v-162z" />
    <glyph glyph-name="zacute" unicode="&#x17a;" horiz-adv-x="986" 
d="M27 0zM934 700l-530 -549h269q53 0 82 32t37 88h163q-14 -271 -318 -271h-610l544 550h-464v150h827zM702 759h-328v42l328 120v-162z" />
    <glyph glyph-name="Zdotaccent" unicode="&#x17b;" horiz-adv-x="986" 
d="M27 0zM934 700l-530 -549h269q53 0 82 32t37 88h163q-14 -271 -318 -271h-610l544 550h-464v150h827zM562 752h-139v123h139v-123z" />
    <glyph glyph-name="zdotaccent" unicode="&#x17c;" horiz-adv-x="986" 
d="M27 0zM934 700l-530 -549h269q53 0 82 32t37 88h163q-14 -271 -318 -271h-610l544 550h-464v150h827zM562 752h-139v123h139v-123z" />
    <glyph glyph-name="Zcaron" unicode="&#x17d;" horiz-adv-x="986" 
d="M27 0zM934 700l-530 -549h269q53 0 82 32t37 88h163q-14 -271 -318 -271h-610l544 550h-464v150h827zM303 921h380v-42l-190 -120l-190 120v42z" />
    <glyph glyph-name="zcaron" unicode="&#x17e;" horiz-adv-x="986" 
d="M27 0zM934 700l-530 -549h269q53 0 82 32t37 88h163q-14 -271 -318 -271h-610l544 550h-464v150h827zM303 921h380v-42l-190 -120l-190 120v42z" />
    <glyph glyph-name="florin" unicode="&#x192;" horiz-adv-x="473" 
d="M455 297h-131v-340q0 -50 -16 -83t-42.5 -53t-59 -28.5t-65.5 -8.5h-110v140h72q57 0 57 71v302h-108v111h108v120q0 49 16 82t42.5 53t59 28.5t65.5 8.5h111v-139h-73q-57 0 -57 -71v-82h131v-111z" />
    <glyph glyph-name="Scommaaccent" unicode="&#x218;" horiz-adv-x="976" 
d="M59 0zM914 535h-573q-107 0 -120 -107h696v-133q0 -295 -318 -295h-540v166h576q52 0 81.5 27t37.5 78h-695v134q0 295 319 295h536v-165zM262 -63h380v-42l-190 -121l-190 121v42z" />
    <glyph glyph-name="scommaaccent" unicode="&#x219;" horiz-adv-x="976" 
d="M59 0zM914 535h-573q-107 0 -120 -107h696v-133q0 -295 -318 -295h-540v166h576q52 0 81.5 27t37.5 78h-695v134q0 295 319 295h536v-165zM262 -63h380v-42l-190 -121l-190 121v42z" />
    <glyph glyph-name="uni021A" unicode="&#x21a;" horiz-adv-x="946" 
d="M26 0zM917 535h-322v-535h-170v535h-118q-111 0 -120 -107h-161q22 272 308 272h583v-165zM321 -63h380v-42l-190 -121l-190 121v42z" />
    <glyph glyph-name="uni021B" unicode="&#x21b;" horiz-adv-x="946" 
d="M26 0zM917 535h-322v-535h-170v535h-118q-111 0 -120 -107h-161q22 272 308 272h583v-165zM321 -63h380v-42l-190 -121l-190 121v42z" />
    <glyph glyph-name="circumflex" unicode="&#x2c6;" horiz-adv-x="501" 
d="M58 801l190 120l190 -120v-42h-380v42z" />
    <glyph glyph-name="caron" unicode="&#x2c7;" horiz-adv-x="501" 
d="M58 921h380v-42l-190 -120l-190 120v42z" />
    <glyph glyph-name="breve" unicode="&#x2d8;" horiz-adv-x="430" 
d="M289 921h79v-41q0 -65 -30.5 -100.5t-87.5 -35.5h-192v177h79v-95h105q28 0 37.5 12.5t9.5 44.5v38z" />
    <glyph glyph-name="dotaccent" unicode="&#x2d9;" horiz-adv-x="260" 
d="M197 752h-139v123h139v-123z" />
    <glyph glyph-name="ring" unicode="&#x2da;" horiz-adv-x="354" 
d="M232 869h-79q-21 0 -28 -7.5t-7 -29.5v-35h79q21 0 28 7.5t7 28.5v36zM292 921v-90q0 -42 -23 -64.5t-66 -22.5h-145v89q0 41 22.5 64.5t64.5 23.5h147z" />
    <glyph glyph-name="ogonek" unicode="&#x2db;" horiz-adv-x="477" 
d="M58 -277q0 104 46.5 174.5t121.5 102.5h171q-24 -9 -45.5 -22t-38 -28t-26.5 -30.5t-12 -30.5h140v-166h-357z" />
    <glyph glyph-name="tilde" unicode="&#x2dc;" horiz-adv-x="622" 
d="M58 859h502v-100h-502v100z" />
    <glyph glyph-name="hungarumlaut" unicode="&#x2dd;" horiz-adv-x="684" 
d="M621 759h-328v42l328 120v-162zM386 872l-132 -49v-64h-196v42l328 120v-49z" />
    <glyph glyph-name="Delta" unicode="&#x394;" horiz-adv-x="1012" 
d="M506 761l486 -761h-972zM320 166h372l-146 245q-11 20 -21 39t-18 39q-16 -38 -41 -77z" />
    <glyph glyph-name="Omega" unicode="&#x3a9;" horiz-adv-x="1111" 
d="M299 535v-84l158 -251v-200h-109q-306 0 -318 271h163q15 -110 119 -110h14l-197 248v291h853v-291l-198 -248h15q103 0 118 110h163q-12 -271 -317 -271h-109v200l157 251v84h-512z" />
    <glyph glyph-name="mu" unicode="&#x3bc;" horiz-adv-x="895" 
d="M235 158h256q183 0 183 185v86h171v-81q0 -97 -30.5 -163.5t-80 -107.5t-112 -59t-126.5 -18h-261v-181h-170v610h170v-271z" />
    <glyph glyph-name="pi" unicode="&#x3c0;" horiz-adv-x="737" 
d="M673 0h-170v270h-271v-270h-170v428h613z" />
    <glyph glyph-name="Wgrave" unicode="&#x1e80;" horiz-adv-x="1231" 
d="M65 0zM715 251h-171v449h171v-449zM1171 0h-756q-78 0 -142.5 23.5t-110.5 66t-71.5 101.5t-25.5 130v379h170v-351q0 -183 180 -183h587v534h169v-700zM420 921l328 -120v-42h-328v162z" />
    <glyph glyph-name="wgrave" unicode="&#x1e81;" horiz-adv-x="1231" 
d="M65 0zM715 251h-171v449h171v-449zM1171 0h-756q-78 0 -142.5 23.5t-110.5 66t-71.5 101.5t-25.5 130v379h170v-351q0 -183 180 -183h587v534h169v-700zM420 921l328 -120v-42h-328v162z" />
    <glyph glyph-name="Wacute" unicode="&#x1e82;" horiz-adv-x="1231" 
d="M65 0zM715 251h-171v449h171v-449zM1171 0h-756q-78 0 -142.5 23.5t-110.5 66t-71.5 101.5t-25.5 130v379h170v-351q0 -183 180 -183h587v534h169v-700zM840 759h-328v42l328 120v-162z" />
    <glyph glyph-name="wacute" unicode="&#x1e83;" horiz-adv-x="1231" 
d="M65 0zM715 251h-171v449h171v-449zM1171 0h-756q-78 0 -142.5 23.5t-110.5 66t-71.5 101.5t-25.5 130v379h170v-351q0 -183 180 -183h587v534h169v-700zM840 759h-328v42l328 120v-162z" />
    <glyph glyph-name="Wdieresis" unicode="&#x1e84;" horiz-adv-x="1231" 
d="M65 0zM715 251h-171v449h171v-449zM1171 0h-756q-78 0 -142.5 23.5t-110.5 66t-71.5 101.5t-25.5 130v379h170v-351q0 -183 180 -183h587v534h169v-700zM827 752h-139v123h139v-123zM573 752h-139v123h139v-123z" />
    <glyph glyph-name="wdieresis" unicode="&#x1e85;" horiz-adv-x="1231" 
d="M65 0zM715 251h-171v449h171v-449zM1171 0h-756q-78 0 -142.5 23.5t-110.5 66t-71.5 101.5t-25.5 130v379h170v-351q0 -183 180 -183h587v534h169v-700zM827 752h-139v123h139v-123zM573 752h-139v123h139v-123z" />
    <glyph glyph-name="Ygrave" unicode="&#x1ef2;" horiz-adv-x="1044" 
d="M65 0zM985 700v-352q0 -82 -23 -146.5t-67.5 -109.5t-109.5 -68.5t-149 -23.5h-571v166h567q78 0 118.5 26.5t54.5 77.5h-740v430h170v-277h580v277h170zM312 921l328 -120v-42h-328v162z" />
    <glyph glyph-name="ygrave" unicode="&#x1ef3;" horiz-adv-x="1044" 
d="M65 0zM985 700v-352q0 -82 -23 -146.5t-67.5 -109.5t-109.5 -68.5t-149 -23.5h-571v166h567q78 0 118.5 26.5t54.5 77.5h-740v430h170v-277h580v277h170zM312 921l328 -120v-42h-328v162z" />
    <glyph glyph-name="endash" unicode="&#x2013;" horiz-adv-x="698" 
d="M648 297h-583v111h583v-111z" />
    <glyph glyph-name="emdash" unicode="&#x2014;" horiz-adv-x="1124" 
d="M1054 297h-989v111h989v-111z" />
    <glyph glyph-name="quoteleft" unicode="&#x2018;" horiz-adv-x="225" 
d="M105 700h83v-217h-142z" />
    <glyph glyph-name="quoteright" unicode="&#x2019;" horiz-adv-x="225" 
d="M130 483h-83v217h142z" />
    <glyph glyph-name="quotesinglbase" unicode="&#x201a;" horiz-adv-x="225" 
d="M130 -94h-83v217h142z" />
    <glyph glyph-name="quotedblleft" unicode="&#x201c;" horiz-adv-x="398" 
d="M106 700h83v-217h-142zM277 700h84v-217h-142z" />
    <glyph glyph-name="quotedblright" unicode="&#x201d;" horiz-adv-x="398" 
d="M302 483h-83v217h142zM130 483h-83v217h142z" />
    <glyph glyph-name="quotedblbase" unicode="&#x201e;" horiz-adv-x="398" 
d="M302 -94h-83v217h142zM130 -94h-83v217h142z" />
    <glyph glyph-name="dagger" unicode="&#x2020;" horiz-adv-x="446" 
d="M429 440h-148v-440h-115v440h-149v112h149v148h115v-148h148v-112z" />
    <glyph glyph-name="daggerdbl" unicode="&#x2021;" horiz-adv-x="446" 
d="M429 149h-148v-149h-115v149h-149v111h149v180h-149v112h149v148h115v-148h148v-112h-148v-180h148v-111z" />
    <glyph glyph-name="bullet" unicode="&#x2022;" horiz-adv-x="440" 
d="M301 213h-162l-72 139l72 141h162l72 -141z" />
    <glyph glyph-name="ellipsis" unicode="&#x2026;" horiz-adv-x="1392" 
d="M121 0zM1266 0h-139v166h139v-166zM769 0h-139v166h139v-166zM260 0h-139v166h139v-166z" />
    <glyph glyph-name="perthousand" unicode="&#x2030;" horiz-adv-x="1724" 
d="M58 0zM357 458h-97v96h97v-96zM451 600h-198q-27 0 -44.5 -4.5t-28.5 -15.5t-15.5 -29.5t-4.5 -45.5v-92h197q26 0 44 4.5t29 15t16 28.5t5 46v93zM553 700v-195q0 -91 -50.5 -141.5t-143.5 -50.5h-301v194q0 89 50.5 141t142.5 52h302zM967 653l-653 -664l-74 75
l654 664zM938 145h-97v96h97v-96zM1032 287h-198q-27 0 -44.5 -4.5t-28.5 -15.5t-15.5 -29.5t-4.5 -45.5v-92h197q26 0 44 4.5t29 15t16 28.5t5 46v93zM1134 387v-195q0 -91 -50.5 -141.5t-143.5 -50.5h-301v194q0 89 50.5 141t142.5 52h302zM1466 145h-97v96h97v-96z
M1560 287h-198q-27 0 -44.5 -4.5t-28.5 -15.5t-15.5 -29.5t-4.5 -45.5v-92h197q26 0 44 4.5t29 15t16 28.5t5 46v93zM1662 387v-195q0 -91 -50.5 -141.5t-143.5 -50.5h-301v194q0 89 50.5 141t142.5 52h302z" />
    <glyph glyph-name="guilsinglleft" unicode="&#x2039;" horiz-adv-x="483" 
d="M389 118h-126l-206 229l206 233h126l-215 -230z" />
    <glyph glyph-name="guilsinglright" unicode="&#x203a;" horiz-adv-x="483" 
d="M272 350l-217 230h128l206 -233l-206 -229h-128z" />
    <glyph glyph-name="fraction" unicode="&#x2044;" horiz-adv-x="359" 
d="M543 653l-653 -664l-74 75l654 664z" />
    <glyph glyph-name="zerosuperior" unicode="&#x2070;" horiz-adv-x="587" 
d="M43 313zM342 458h-97v96h97v-96zM436 600h-198q-27 0 -44.5 -4.5t-28.5 -15.5t-15.5 -29.5t-4.5 -45.5v-92h197q26 0 44 4.5t29 15t16 28.5t5 46v93zM538 700v-195q0 -91 -50.5 -141.5t-143.5 -50.5h-301v194q0 89 50.5 141t142.5 52h302z" />
    <glyph glyph-name="foursuperior" unicode="&#x2074;" horiz-adv-x="565" 
d="M40 313zM142 700v-146h273v146h97v-387h-97v145h-375v242h102z" />
    <glyph glyph-name="fivesuperior" unicode="&#x2075;" horiz-adv-x="547" 
d="M47 313zM497 600h-354v-46h356v-77q0 -164 -177 -164h-275v100h294q46 0 57 45h-351v242h450v-100z" />
    <glyph glyph-name="sixsuperior" unicode="&#x2076;" horiz-adv-x="544" 
d="M43 313zM339 413q23 0 37.5 12t19.5 33h-256v-45h199zM494 600h-294q-48 0 -58 -46h354v-77q0 -164 -177 -164h-276v223q0 164 177 164h274v-100z" />
    <glyph glyph-name="sevensuperior" unicode="&#x2077;" horiz-adv-x="570" 
d="M36 313zM94 313l233 269q3 4 5.5 6t15.5 13q-11 -1 -19 -1h-17h-118q-53 0 -59 -57h-99q8 157 177 157h339l-328 -387h-130z" />
    <glyph glyph-name="eightsuperior" unicode="&#x2078;" horiz-adv-x="590" 
d="M40 313zM173 601q-25 0 -25 -23q0 -27 25 -27h237q26 0 26 27q0 23 -26 23h-237zM173 461q-25 0 -25 -27q0 -24 25 -24h237q26 0 26 24q0 27 -26 27h-237zM149 313q-109 0 -109 101q0 74 51 96q-24 10 -37.5 32t-13.5 56q0 102 109 102h286q107 0 107 -102q0 -69 -51 -88
q51 -22 51 -96q0 -101 -107 -101h-286z" />
    <glyph glyph-name="ninesuperior" unicode="&#x2079;" horiz-adv-x="561" 
d="M43 313zM413 554v46h-213q-48 0 -58 -46h271zM45 413h309q49 0 57 45h-368v78q0 164 176 164h291v-223q0 -164 -176 -164h-289v100z" />
    <glyph glyph-name="zeroinferior" unicode="&#x2080;" horiz-adv-x="587" 
d="M342 145h-97v96h97v-96zM436 287h-198q-27 0 -44.5 -4.5t-28.5 -15.5t-15.5 -29.5t-4.5 -45.5v-92h197q26 0 44 4.5t29 15t16 28.5t5 46v93zM538 387v-195q0 -91 -50.5 -141.5t-143.5 -50.5h-301v194q0 89 50.5 141t142.5 52h302z" />
    <glyph glyph-name="oneinferior" unicode="&#x2081;" horiz-adv-x="262" 
d="M119 0v207q0 80 -71 80h-30v100h32q87 0 129 -43t42 -136v-208h-102z" />
    <glyph glyph-name="twoinferior" unicode="&#x2082;" horiz-adv-x="556" 
d="M511 0h-475v241h378q-12 46 -58 46h-320v100h301q176 0 176 -164v-78h-379v-45h377v-100z" />
    <glyph glyph-name="threeinferior" unicode="&#x2083;" horiz-adv-x="569" 
d="M520 387v-195q0 -91 -50 -141.5t-144 -50.5h-281v100h279q38 0 57.5 10.5t28.5 34.5h-210v96h218v46h-218q-51 0 -60 -57h-97q8 157 176 157h301z" />
    <glyph glyph-name="fourinferior" unicode="&#x2084;" horiz-adv-x="565" 
d="M142 387v-146h273v146h97v-387h-97v145h-375v242h102z" />
    <glyph glyph-name="fiveinferior" unicode="&#x2085;" horiz-adv-x="547" 
d="M497 287h-354v-46h356v-77q0 -164 -177 -164h-275v100h294q46 0 57 45h-351v242h450v-100z" />
    <glyph glyph-name="sixinferior" unicode="&#x2086;" horiz-adv-x="544" 
d="M339 100q23 0 37.5 12t19.5 33h-256v-45h199zM494 287h-294q-48 0 -58 -46h354v-77q0 -164 -177 -164h-276v223q0 164 177 164h274v-100z" />
    <glyph glyph-name="seveninferior" unicode="&#x2087;" horiz-adv-x="570" 
d="M94 0l233 269q3 4 5.5 6t15.5 13q-11 -1 -19 -1h-17h-118q-53 0 -59 -57h-99q8 157 177 157h339l-328 -387h-130z" />
    <glyph glyph-name="eightinferior" unicode="&#x2088;" horiz-adv-x="590" 
d="M173 288q-25 0 -25 -23q0 -27 25 -27h237q26 0 26 27q0 23 -26 23h-237zM173 148q-25 0 -25 -27q0 -24 25 -24h237q26 0 26 24q0 27 -26 27h-237zM149 0q-109 0 -109 101q0 74 51 96q-24 10 -37.5 32t-13.5 56q0 102 109 102h286q107 0 107 -102q0 -69 -51 -88
q51 -22 51 -96q0 -101 -107 -101h-286z" />
    <glyph glyph-name="nineinferior" unicode="&#x2089;" horiz-adv-x="561" 
d="M413 241v46h-213q-48 0 -58 -46h271zM45 100h309q49 0 57 45h-368v78q0 164 176 164h291v-223q0 -164 -176 -164h-289v100z" />
    <glyph glyph-name="Euro" unicode="&#x20ac;" horiz-adv-x="990" 
d="M36 339h51v45h-70l19 68h51v248h865l-96 -165h-598v-83h549l-41 -68h-508v-45h483l-40 -68h-432q34 -105 172 -105h495v-166h-499q-147 0 -235 70t-110 201h-75z" />
    <glyph glyph-name="uni20B9" unicode="&#x20b9;" horiz-adv-x="780" 
d="M47 700h697v-129h-111v-59h111v-129h-117q-5 -35 -18.5 -68t-40 -60t-68 -45.5t-101.5 -24.5l188 -185h-207l-200 191v131h194q42 0 62 15.5t25 45.5h-414v129h421v59h-421v129z" />
    <glyph glyph-name="uni2117" unicode="&#x2117;" horiz-adv-x="871" 
d="M810 700v-352q0 -82 -23.5 -146.5t-68 -109.5t-109.5 -68.5t-149 -23.5h-398v351q0 80 23.5 144.5t68.5 110t109.5 70t147.5 24.5h399zM411 610q-61 0 -109 -18t-81.5 -52t-51 -81.5t-17.5 -107.5v-260h308q125 0 192 68t67 189v262h-308zM247 199v324h430v-62
q0 -137 -147 -137h-168v74h184q47 0 55 48h-275v-247h-79z" />
    <glyph glyph-name="trademark" unicode="&#x2122;" horiz-adv-x="1192" 
d="M506 591h-140v-306h-112v306h-42q-73 0 -80 -70h-106q15 179 204 179h276v-109zM790 534h113v-249h-113v249zM566 700h350q51 0 93.5 -15.5t73 -43.5t47.5 -67t17 -86v-203h-113v184q0 122 -118 122h-239v-306h-111v415z" />
    <glyph glyph-name="onethird" unicode="&#x2153;" horiz-adv-x="1010" 
d="M58 0zM181 313v207q0 80 -71 80h-30v100h32q87 0 129 -43t42 -136v-208h-102zM785 653l-653 -664l-74 75l654 664zM947 387v-195q0 -91 -50 -141.5t-144 -50.5h-281v100h279q38 0 57.5 10.5t28.5 34.5h-210v96h218v46h-218q-51 0 -60 -57h-97q8 157 176 157h301z" />
    <glyph glyph-name="twothirds" unicode="&#x2154;" horiz-adv-x="1256" 
d="M58 0zM533 313h-475v241h378q-12 46 -58 46h-320v100h301q176 0 176 -164v-78h-379v-45h377v-100zM1033 653l-653 -664l-74 75l654 664zM1194 387v-195q0 -91 -50 -141.5t-144 -50.5h-281v100h279q38 0 57.5 10.5t28.5 34.5h-210v96h218v46h-218q-51 0 -60 -57h-97
q8 157 176 157h301z" />
    <glyph glyph-name="oneeighth" unicode="&#x215b;" horiz-adv-x="1069" 
d="M58 0zM181 313v207q0 80 -71 80h-30v100h32q87 0 129 -43t42 -136v-208h-102zM785 653l-653 -664l-74 75l654 664zM637 288q-25 0 -25 -23q0 -27 25 -27h237q26 0 26 27q0 23 -26 23h-237zM637 148q-25 0 -25 -27q0 -24 25 -24h237q26 0 26 24q0 27 -26 27h-237zM613 0
q-109 0 -109 101q0 74 51 96q-24 10 -37.5 32t-13.5 56q0 102 109 102h286q107 0 107 -102q0 -69 -51 -88q51 -22 51 -96q0 -101 -107 -101h-286z" />
    <glyph glyph-name="threeeighths" unicode="&#x215c;" horiz-adv-x="1245" 
d="M57 0zM534 700v-195q0 -91 -50 -141.5t-144 -50.5h-281v100h279q38 0 57.5 10.5t28.5 34.5h-210v96h218v46h-218q-51 0 -60 -57h-97q8 157 176 157h301zM953 653l-653 -664l-74 75l654 664zM813 288q-25 0 -25 -23q0 -27 25 -27h237q26 0 26 27q0 23 -26 23h-237z
M813 148q-25 0 -25 -27q0 -24 25 -24h237q26 0 26 24q0 27 -26 27h-237zM789 0q-109 0 -109 101q0 74 51 96q-24 10 -37.5 32t-13.5 56q0 102 109 102h286q107 0 107 -102q0 -69 -51 -88q51 -22 51 -96q0 -101 -107 -101h-286z" />
    <glyph glyph-name="fiveeighths" unicode="&#x215d;" horiz-adv-x="1240" 
d="M58 0zM508 600h-354v-46h356v-77q0 -164 -177 -164h-275v100h294q46 0 57 45h-351v242h450v-100zM946 653l-653 -664l-74 75l654 664zM808 288q-25 0 -25 -23q0 -27 25 -27h237q26 0 26 27q0 23 -26 23h-237zM808 148q-25 0 -25 -27q0 -24 25 -24h237q26 0 26 24
q0 27 -26 27h-237zM784 0q-109 0 -109 101q0 74 51 96q-24 10 -37.5 32t-13.5 56q0 102 109 102h286q107 0 107 -102q0 -69 -51 -88q51 -22 51 -96q0 -101 -107 -101h-286z" />
    <glyph glyph-name="seveneighths" unicode="&#x215e;" horiz-adv-x="1153" 
d="M58 0zM116 313l233 269q3 4 5.5 6t15.5 13q-11 -1 -19 -1h-17h-118q-53 0 -59 -57h-99q8 157 177 157h339l-328 -387h-130zM871 653l-653 -664l-74 75l654 664zM721 288q-25 0 -25 -23q0 -27 25 -27h237q26 0 26 27q0 23 -26 23h-237zM721 148q-25 0 -25 -27
q0 -24 25 -24h237q26 0 26 24q0 27 -26 27h-237zM697 0q-109 0 -109 101q0 74 51 96q-24 10 -37.5 32t-13.5 56q0 102 109 102h286q107 0 107 -102q0 -69 -51 -88q51 -22 51 -96q0 -101 -107 -101h-286z" />
    <glyph glyph-name="arrowleft" unicode="&#x2190;" horiz-adv-x="712" 
d="M480 446h158v-186h-158v-141l-414 228l414 234v-135z" />
    <glyph glyph-name="arrowup" unicode="&#x2191;" horiz-adv-x="621" 
d="M416 279v-159h-186v159h-141l228 414l235 -414h-136z" />
    <glyph glyph-name="arrowright" unicode="&#x2192;" horiz-adv-x="712" 
d="M224 581l414 -234l-414 -228v141h-159v186h159v135z" />
    <glyph glyph-name="arrowdown" unicode="&#x2193;" horiz-adv-x="621" 
d="M225 415v158h185v-158h142l-229 -414l-234 414h136z" />
    <glyph glyph-name="partialdiff" unicode="&#x2202;" horiz-adv-x="582" 
d="M226 692q19 5 36 6.5t31 1.5q49 0 94.5 -16t80.5 -50t56.5 -87t21.5 -127q0 -83 -13.5 -158.5t-46 -134t-86.5 -93t-135 -34.5q-230 0 -230 246q0 58 15.5 100t42 68.5t62.5 39t77 12.5q74 0 119.5 -22.5t76.5 -60.5q0 97 -39.5 141.5t-112.5 44.5q-14 0 -50 -6v129z
M391 253q-9 38 -38 59.5t-81 21.5q-45 0 -72.5 -27t-27.5 -72q0 -55 26.5 -79.5t66.5 -24.5q99 0 126 122z" />
    <glyph glyph-name="product" unicode="&#x220f;" horiz-adv-x="821" 
d="M749 -187h-125v906h-427v-906h-125v1017h677v-1017z" />
    <glyph glyph-name="summation" unicode="&#x2211;" horiz-adv-x="479" 
d="M22 -86v101l179 290l-179 293v102h434v-146h-246l147 -249l-147 -245h246v-146h-434z" />
    <glyph glyph-name="minus" unicode="&#x2212;" horiz-adv-x="446" 
d="M429 297h-412v111h412v-111z" />
    <glyph glyph-name="radical" unicode="&#x221a;" horiz-adv-x="725" 
d="M699 700l-316 -700h-138l-138 297h-83v111h156l139 -306l255 598h125z" />
    <glyph glyph-name="infinity" unicode="&#x221e;" horiz-adv-x="804" 
d="M588 399q0 57 -52 57q-61 0 -61 -57v-97q0 -57 61 -57q52 0 52 57v97zM327 399q0 57 -60 57q-53 0 -53 -57v-97q0 -57 53 -57q60 0 60 57v97zM52 399q0 192 177 192q79 0 123.5 -31.5t55.5 -89.5q23 121 166 121q178 0 178 -192v-97q0 -192 -178 -192q-73 0 -114 31.5
t-52 89.5q-11 -57 -55.5 -89t-123.5 -32q-177 0 -177 192v97z" />
    <glyph glyph-name="integral" unicode="&#x222b;" horiz-adv-x="462" 
d="M312 -87q0 -56 -16.5 -92.5t-43 -58.5t-59.5 -30.5t-66 -8.5h-108v141h79q51 0 51 110v775q0 49 16 82t42 53t58.5 28.5t65.5 8.5h111v-139h-72q-58 0 -58 -151v-718z" />
    <glyph glyph-name="approxequal" unicode="&#x2248;" horiz-adv-x="446" 
d="M17 141zM338 146q-13 -5 -21 -5q-4 0 -7.5 0.5t-8.5 1.5l-152 41q-2 1 -9 1q-5 0 -10 -2l-113 -34v114l92 27q7 2 12 3t9 1t7.5 -1t9.5 -2l151 -39q3 -1 10 -1q4 0 9 2l112 31v-112zM338 417q-13 -5 -21 -5q-4 0 -7.5 0.5t-8.5 1.5l-152 41q-2 1 -9 1q-5 0 -10 -2
l-113 -34v114l92 27q7 2 12 3t9 1t7.5 -1t9.5 -2l151 -39q3 -1 10 -1q4 0 9 2l112 31v-112z" />
    <glyph glyph-name="notequal" unicode="&#x2260;" horiz-adv-x="446" 
d="M414 664l-64 -138h79v-111h-131l-57 -124h188v-112h-240l-83 -179l-74 37l66 142h-81v112h132l58 124h-190v111h242l82 174z" />
    <glyph glyph-name="lessequal" unicode="&#x2264;" horiz-adv-x="446" 
d="M17 0zM429 89l-412 199v139l412 190v-125l-309 -140l309 -138v-125zM429 -36h-412v111h412v-111z" />
    <glyph glyph-name="greaterequal" unicode="&#x2265;" horiz-adv-x="446" 
d="M17 0zM17 214l310 138l-310 140v125l412 -190v-139l-412 -199v125zM429 -36h-412v111h412v-111z" />
    <glyph glyph-name="lozenge" unicode="&#x25ca;" horiz-adv-x="637" 
d="M33 350l196 303q14 23 33.5 35t56.5 12q34 0 54.5 -12t34.5 -35l196 -303l-196 -303q-14 -21 -34.5 -34t-54.5 -13q-37 0 -56.5 13t-33.5 34zM453 350l-134 216l-135 -216l135 -216z" />
    <glyph glyph-name="A.1" unicode="&#xe040;" horiz-adv-x="1036" 
d="M229 425h559q-8 43 -49 77q-42 33 -202 33h-308v-110zM59 700h561q83 0 148 -23.5t110 -68.5t68.5 -110t23.5 -147v-351h-171v267h-570v-267h-170v700z" />
    <glyph glyph-name="C.1" unicode="&#xe041;" horiz-adv-x="982" 
d="M932 535h-704v-185q0 -184 183 -184h521v-166h-524q-84 0 -149 23.5t-109.5 68.5t-68 109.5t-23.5 146.5v352h874v-165z" />
    <glyph glyph-name="D.1" unicode="&#xe042;" horiz-adv-x="1007" 
d="M778 348q0 187 -183 187h-530v165h534q83 0 148 -23.5t109.5 -68.5t68 -110t23.5 -147v-351h-883v428h170v-262h543v182z" />
    <glyph glyph-name="E.1" unicode="&#xe043;" horiz-adv-x="983" 
d="M946 0h-888v351q0 81 24 145.5t69.5 109.5t110.5 69.5t146 24.5h538v-165h-535q-78 0 -118 -27.5t-56 -79.5h691v-157h-700v-105h718v-166z" />
    <glyph glyph-name="G.1" unicode="&#xe044;" horiz-adv-x="1034" 
d="M974 700v-165h-563q-53 0 -88.5 -9t-56.5 -30.5t-29.5 -58.5t-8.5 -92v-179h392q79 0 116.5 24.5t51.5 80.5h-107v157h297q-7 -127 -30.5 -210t-66.5 -131.5t-106.5 -67.5t-151.5 -19h-564v351q0 82 23 147t67.5 110t109.5 68.5t149 23.5h566z" />
    <glyph glyph-name="L.1" unicode="&#xe045;" horiz-adv-x="916" 
d="M235 700v-534h641v-166h-811v700h170z" />
    <glyph glyph-name="O.1" unicode="&#xe046;" horiz-adv-x="1050" 
d="M228 351q0 -54 9.5 -90t31 -57t56.5 -29.5t86 -8.5h406v182q0 54 -9 90t-30 57.5t-56.5 30.5t-87.5 9h-406v-184zM638 700q82 0 147 -24.5t110 -70t68.5 -110t23.5 -144.5v-351h-579q-84 0 -149 23.5t-109.5 68.5t-68 109.5t-23.5 146.5v352h580z" />
    <glyph glyph-name="T.1" unicode="&#xe047;" horiz-adv-x="823" 
d="M802 535h-305v-535h-169v535h-307v165h781v-165z" />
    <glyph glyph-name="U.1" unicode="&#xe048;" 
d="M948 700v-330q0 -90 -27.5 -159t-77.5 -116t-122 -71t-160 -24h-496v700h170v-534h281q262 0 262 193v341h170z" />
    <glyph glyph-name="W.1" unicode="&#xe049;" horiz-adv-x="1231" 
d="M522 700h170v-449h-170v449zM65 700h170v-534h586q181 0 181 183v351h169v-379q0 -71 -25.5 -130t-71.5 -101.5t-110.5 -66t-142.5 -23.5h-756v700z" />
    <glyph glyph-name="Z.1" unicode="&#xe04a;" horiz-adv-x="1004" 
d="M944 700l-527 -539h513v-161h-892l534 540h-454v160h826z" />
    <glyph glyph-name="three.1" unicode="&#xe04b;" horiz-adv-x="1019" 
d="M55 0v162h667q57 0 57 54q0 59 -57 59h-404v149h404q57 0 57 61q0 51 -57 51h-667v164h712q192 0 192 -177q0 -145 -130 -166q62 -12 96 -56t34 -123q0 -178 -192 -178h-712z" />
    <glyph glyph-name="B.1" unicode="&#xe04c;" horiz-adv-x="1021" 
d="M58 0v162h666q57 0 57 54q0 59 -57 59h-665v149h665q57 0 57 61q0 51 -57 51h-666v164h712q191 0 191 -177q0 -145 -131 -166q63 -12 97 -56t34 -123q0 -178 -191 -178h-712z" />
    <glyph glyph-name="d.2" unicode="&#xe04d;" horiz-adv-x="955" 
d="M48 700h875v-352q0 -82 -23.5 -146.5t-68.5 -109.5t-110 -68.5t-149 -23.5h-524v166h521q183 0 183 184v185h-704v165z" />
    <glyph glyph-name="E.2" unicode="&#xe04e;" horiz-adv-x="1040" 
d="M255 0q-191 0 -191 178q0 79 34.5 123t95.5 56q-130 21 -130 166q0 177 191 177h712v-164h-666q-56 0 -56 -51q0 -61 56 -61h665v-149h-665q-56 0 -56 -59q0 -54 56 -54h666v-162h-712z" />
    <glyph glyph-name="G.2" unicode="&#xe04f;" horiz-adv-x="1050" 
d="M987 535h-576q-53 0 -88 -9t-56 -30.5t-30 -57.5t-9 -90v-182h406q51 0 86 8.5t56.5 29.5t31 57t9.5 90v77h170v-80q0 -82 -23.5 -146.5t-68 -109.5t-109.5 -68.5t-148 -23.5h-580v351q0 80 23.5 144.5t68.5 110t110 70t148 24.5h579v-165z" />
    <glyph glyph-name="M.2" unicode="&#xe050;" horiz-adv-x="1318" 
d="M494 466h172v-466h-172v466zM60 700h680q104 0 175.5 -44t116.5 -133l259 -523h-188l-244 465q-37 70 -141 70h-489v-535h-169v700z" />
    <glyph glyph-name="N.2" unicode="&#xe051;" horiz-adv-x="916" 
d="M60 700h286q206 0 292 -177l260 -523h-188l-244 465q-19 35 -53 52.5t-88 17.5h-96v-535h-169v700z" />
    <glyph glyph-name="V.2" unicode="&#xe052;" horiz-adv-x="916" 
d="M53 700h171v-534h96q54 0 88 17.5t52 51.5l245 465h188l-261 -522q-85 -178 -291 -178h-288v700z" />
    <glyph glyph-name="W.2" unicode="&#xe053;" horiz-adv-x="1157" 
d="M384 700h171v-465h-171v465zM50 700h170v-534h356q54 0 88.5 17.5t52.5 52.5l244 464h188l-261 -522q-87 -178 -291 -178h-547v700z" />
    <glyph glyph-name="Y.2" unicode="&#xe054;" horiz-adv-x="976" 
d="M232 0h-170v700h170v-272h265l238 272h213l-363 -429h-353v-271z" />
    <glyph glyph-name="B.3" unicode="&#xe055;" horiz-adv-x="1050" 
d="M987 700v-352q0 -82 -23.5 -146.5t-68 -109.5t-109.5 -68.5t-148 -23.5h-580v351q0 80 23.5 144.5t68.5 110t110 70t148 24.5h579zM634 166q42 0 73 5.5t52.5 19t34.5 35.5t18 56h-584v-116h406zM411 535q-85 0 -126 -25t-51 -89h583v114h-406z" />
    <glyph glyph-name="D.3" unicode="&#xe056;" horiz-adv-x="955" 
d="M58 166h703v182q0 187 -183 187h-520v165h524q83 0 148 -23.5t110 -68.5t68.5 -110t23.5 -147v-351h-874v166z" />
    <glyph glyph-name="E.3" unicode="&#xe057;" horiz-adv-x="1007" 
d="M791 428q-16 107 -120 107h-452v-107h572zM950 0h-573q-319 0 -319 295v405h577q319 0 319 -295v-134h-733q8 -51 37 -78t83 -27h609v-166z" />
    <glyph glyph-name="M.3" unicode="&#xe058;" horiz-adv-x="1318" 
d="M820 0h-172v466h172v-466zM1254 0h-169v535h-489q-55 0 -89 -17.5t-52 -52.5l-244 -465h-188l260 523q87 177 291 177h680v-700z" />
    <glyph glyph-name="N.3" unicode="&#xe059;" horiz-adv-x="916" 
d="M858 0h-171v535h-95q-54 0 -88.5 -17.5t-52.5 -52.5l-244 -465h-189l261 523q87 177 292 177h287v-700z" />
    <glyph glyph-name="V.3" unicode="&#xe05a;" horiz-adv-x="916" 
d="M858 0h-287q-205 0 -292 178l-261 522h189l244 -465q19 -34 53 -51.5t88 -17.5h95v534h171v-700z" />
    <glyph glyph-name="W.3" unicode="&#xe05b;" horiz-adv-x="1157" 
d="M769 235h-171v465h171v-465zM1102 0h-546q-205 0 -292 178l-260 522h188l244 -464q18 -35 52 -52.5t88 -17.5h357v534h169v-700z" />
    <glyph glyph-name="Y.3" unicode="&#xe05c;" horiz-adv-x="976" 
d="M737 271h-353l-363 429h213l238 -272h265v272h170v-700h-170v271z" />
    <glyph glyph-name="E.4" unicode="&#xe05d;" horiz-adv-x="995" 
d="M946 535h-716v-107h698v-157h-698v-105h716v-166h-888v700h888v-165z" />
    <glyph glyph-name="I.4" unicode="&#xe05e;" horiz-adv-x="303" 
d="M65 0v489h170v-489h-170zM235 562h-170v138h170v-138z" />
    <glyph glyph-name="S.4" unicode="&#xe05f;" horiz-adv-x="1050" 
d="M58 0v166h576q51 0 86 8.5t56.5 29.5t31 57t9.5 90v77h170v-80q0 -82 -23.5 -146.5t-68 -109.5t-109.5 -68.5t-148 -23.5h-580zM987 535h-576q-53 0 -88 -9t-56 -30.5t-30 -57.5t-9 -90v-77h-170v80q0 80 23.5 144.5t68.5 110t110 70t148 24.5h579v-165z" />
    <glyph glyph-name="N.4" unicode="&#xe060;" 
d="M778 0v341q0 194 -262 194h-281v-535h-170v700h496q88 0 160 -24t122 -71t77.5 -116t27.5 -159v-330h-170z" />
    <glyph glyph-name="N.5" unicode="&#xe061;" 
d="M65 0v330q0 90 27.5 159t78 116t122 71t160.5 24h495v-700h-170v535h-281q-262 0 -262 -194v-341h-170z" />
    <glyph glyph-name="L.4" unicode="&#xe062;" horiz-adv-x="815" 
d="M211 351q0 -187 182 -187h380v-164h-384q-83 0 -148 23.5t-109.5 68.5t-68 109.5t-23.5 146.5v352h171v-349z" />
    <glyph glyph-name="at.1" unicode="&#xe063;" horiz-adv-x="855" 
d="M479 340h-75v-71h75v71zM802 700v-311q0 -340 -321 -340v117h-184v151q0 138 138 138h156v-254q34 8 51 42t17 104v203h-322q-134 0 -134 -135v-415h-141v402q0 298 270 298h470z" />
    <glyph glyph-name=".ttfautohint" horiz-adv-x="0" 
d="M0 0z" />
    </font>
</defs>
</svg>
